<svg id="Layer_1" data-name="Layer 1" xmlns="http://www.w3.org/2000/svg" viewBox="0 0 300 300"><defs><style>.cls-1{fill:#231f20;}.cls-2{fill:#f16224;isolation:isolate;}</style></defs><circle class="cls-1" cx="150" cy="150" r="150"/><path class="cls-2" d="M380.6,429.55q-15.81-24.33-43.11-37.45T276.38,379q-33.8,0-61.1,13.11t-43.12,37.65q-15.82,24.5-15.82,56.44,0,32.31,15.39,56.84t42.47,37.81q27.08,13.32,60.45,13.3,33.8,0,61.53-13.3t44-37.81q16.26-24.53,16.26-56.84T380.6,429.55ZM262.37,417.93c3.83-2,7.43-3.85,11.08-5.61a8.73,8.73,0,0,1,3.33-.52,76.71,76.71,0,0,1,37.38,9.35,11.92,11.92,0,0,1,3.89,3.73c2,2.92,3.88,5.93,5.84,9.1l1.35,2.22a1.35,1.35,0,0,1-.29.18c-1.09.52-2.18,1-3.26,1.58-4.28,2.05-8.69,4.17-13.09,6a8.93,8.93,0,0,1-4.66.51c-6.32-1.16-12.74-2.43-18.94-3.67-4.44-.88-9-1.8-13.55-2.65a3.25,3.25,0,0,1-2.8-2.06c-2.14-4.47-4.37-8.79-6.73-13.34-.62-1.22-1.25-2.41-1.88-3.64C260.83,418.73,261.62,418.33,262.37,417.93Zm.1,46.81a7,7,0,0,0,2.73,1.65c.66.23,1.51.49,2.53.77a11.79,11.79,0,0,0-.69,2.48,37.83,37.83,0,0,1-4.75-1.39,8.15,8.15,0,0,1-3.24-2.25,6,6,0,0,1-1.31-4.08,6.42,6.42,0,0,1,1.31-4,8.46,8.46,0,0,1,3.72-2.72,15.18,15.18,0,0,1,5.64-1,13,13,0,0,1,7.47,2,7.1,7.1,0,0,1,2.78,3.44,13.37,13.37,0,0,0-3.72.76,5.3,5.3,0,0,0-2-2.43,8.31,8.31,0,0,0-5-1.38,8,8,0,0,0-4.76,1.33,4.52,4.52,0,0,0-1.92,3.85A4,4,0,0,0,262.47,464.74Zm-1.11,11.45a5.69,5.69,0,0,0,2.06,3.38,8.08,8.08,0,0,0,5.27,1.53,11.31,11.31,0,0,0,1.89-.15,12,12,0,0,0,2.57,1.86,15.12,15.12,0,0,1-4.46.62,15.71,15.71,0,0,1-5.78-1,9.4,9.4,0,0,1-3.93-2.73,6.33,6.33,0,0,1-1.41-3.5Zm10.32,4.52-.42-.37c-.13-.12-.25-.25-.37-.38a10.5,10.5,0,0,1-1.54-2,11.53,11.53,0,0,1-1.58-6,11,11,0,0,1,.06-1.16c0-.16,0-.31,0-.47s0-.3.07-.45a10.88,10.88,0,0,1,.68-2.46c.06-.15.12-.29.19-.43a3.13,3.13,0,0,1,.2-.41c.11-.21.22-.42.34-.61a10.71,10.71,0,0,1,4.31-4c.21-.11.41-.2.63-.29a7.52,7.52,0,0,1,.78-.32,13.31,13.31,0,0,1,1.52-.46,13.6,13.6,0,0,1,2.34-.33l.46,0h.46c.42,0,.84,0,1.25.06a7.35,7.35,0,0,0-.11,1.34,8.73,8.73,0,0,0,.05,1h-.34A10.41,10.41,0,0,0,276,464a8.4,8.4,0,0,0-3.41,3.12c-.07.1-.12.2-.18.3s-.14.27-.21.42-.13.27-.2.42a9,9,0,0,0-.62,2.52c0,.15,0,.31,0,.46s0,.33,0,.5v.18a9.18,9.18,0,0,0,1.27,4.87,7.26,7.26,0,0,0,1.28,1.61,3.31,3.31,0,0,0,.33.32l.35.31A10.14,10.14,0,0,0,276,480a9.25,9.25,0,0,0,1.22.51l.5.16.5.13a10.51,10.51,0,0,0,2.47.28,10.23,10.23,0,0,0,2.23-.23,9.53,9.53,0,0,0,2.13,1.65,12.81,12.81,0,0,1-5.27,1,13.75,13.75,0,0,1-4.31-.67l-.58-.22c-.2-.08-.4-.16-.58-.25a5.86,5.86,0,0,1-.67-.32A11.78,11.78,0,0,1,271.68,480.71Zm3-8a7,7,0,0,0-2.41-1.55,7.88,7.88,0,0,1,.62-2.58c.71.21,1.33.43,1.88.64a8.35,8.35,0,0,1,3.28,2.28,6,6,0,0,1,1.33,4.12,6.6,6.6,0,0,1-1.22,3.8l-.28.37a9.9,9.9,0,0,1-1.46-.59,8.22,8.22,0,0,1-1.3-.83,4.53,4.53,0,0,0,.76-2.59A4.21,4.21,0,0,0,274.7,472.66Zm9.26,7.9a4.17,4.17,0,0,1-.36-.37,4.4,4.4,0,0,1-.35-.39.35.35,0,0,1-.1-.11,6.26,6.26,0,0,1-1.41-3.5h3.79a5.23,5.23,0,0,0,.85,2.07,4.92,4.92,0,0,0,.57.71,7.25,7.25,0,0,0,.63.6,4.91,4.91,0,0,0,.84.56,2.06,2.06,0,0,0,.42.21,5.37,5.37,0,0,0,.82.32,2.3,2.3,0,0,0,.45.12,11,11,0,0,0,2.74.32c.27,0,.52,0,.78,0a3.42,3.42,0,0,0,.46,0l.46,0a7.44,7.44,0,0,0,3.51-1.36,4.72,4.72,0,0,0,2-3.9,4.2,4.2,0,0,0-1.19-3.07A7.42,7.42,0,0,0,296,471c-.44-.16-.94-.31-1.49-.47l-.46-.12c-.15,0-.3-.09-.46-.12q-.88-.24-1.92-.48t-1.95-.48l-.52-.13-.54-.15h0c-.86-.25-1.62-.49-2.26-.74a8.18,8.18,0,0,1-3.23-2.25,5.08,5.08,0,0,1-1-2,3.57,3.57,0,0,1-.11-.47A2.53,2.53,0,0,1,282,463h0a7.49,7.49,0,0,1-.07-1.09,7.15,7.15,0,0,1,.11-1.24,3.78,3.78,0,0,1,.1-.46,3.66,3.66,0,0,1,.13-.44,6.08,6.08,0,0,1,1-1.85,8.5,8.5,0,0,1,3.73-2.72,15.09,15.09,0,0,1,5.63-1,12.93,12.93,0,0,1,7.46,2,7,7,0,0,1,3.13,4.66h-3.91a5.12,5.12,0,0,0-2.13-2.89,8.31,8.31,0,0,0-5-1.38,8,8,0,0,0-4.74,1.33,4.44,4.44,0,0,0-1.83,2.79c0,.15-.05.3-.07.47a4.07,4.07,0,0,0,0,.5v.09a4,4,0,0,0,1.18,2.95,2,2,0,0,0,.26.24c.1.1.21.18.32.28a7.59,7.59,0,0,0,2.13,1.13c1,.36,2.46.77,4.28,1.21h0l.43.11.46.11a41.75,41.75,0,0,1,4.4,1.34,8.53,8.53,0,0,1,3.29,2.28,6,6,0,0,1,1.32,4.12,6.76,6.76,0,0,1-1.21,3.8,8.83,8.83,0,0,1-3.67,2.92,12.91,12.91,0,0,1-4.13,1.06,3.55,3.55,0,0,1-.46,0c-.4,0-.82.05-1.24.05a17.14,17.14,0,0,1-3.19-.28c-.16,0-.31-.06-.46-.09a12.87,12.87,0,0,1-2.13-.64h0l-.52-.22a5.4,5.4,0,0,1-.49-.23A9.4,9.4,0,0,1,284,480.56Zm6-10.28,1.52.37q1.17.27,2.13.54v9c-.26,0-.51,0-.78,0a10.29,10.29,0,0,1-2.74-.33v-2.12l-.84,1.31a4.17,4.17,0,0,1-.26.37,4.13,4.13,0,0,1-.85-.55,5.3,5.3,0,0,1-.54-.51,8.1,8.1,0,0,0,1.22-1.55,9.12,9.12,0,0,0,1.27-4.82A10.37,10.37,0,0,0,290,470.28Zm3.65-9.37v5.75c-1.44-.36-2.61-.69-3.52-1v-4.77Zm-4,4.62a6.15,6.15,0,0,1-2.38-1.45,2.79,2.79,0,0,1-.87-1.86,8.37,8.37,0,0,1,2.86,2.7Zm-76.79-12c4.32-7.62,7.93-13.95,11.87-20.37,2.46-4,5.63-6.37,9.68-7.2,6-1.21,12.39-2.66,18.93-4.29,1.55-.4,1.6-.28,2.12.81,1.23,2.6,2.56,5.17,3.84,7.67,1.45,2.79,3,5.7,4.29,8.6a3.35,3.35,0,0,1-.23,2.31c-6.31,8.87-12.84,17.62-19.14,26.06-.91,1.22-1.36,1.38-1.36,1.38-6.83,1.26-13.54,2.4-20.64,3.58l-3.6.6c-.42-1.06-.82-2.14-1.23-3.21-1.84-4.8-3.57-9.34-5.18-14A4.33,4.33,0,0,1,212.87,453.57Zm1,80.81c-5.73-8.45-9.9-17.32-11.52-24.27a17.66,17.66,0,0,1,5.85,5.33c3.51,5.36,7.36,10.6,11.06,15.65,1.67,2.26,3.37,4.59,5,6.91l.11.15a9.61,9.61,0,0,1,1.25,2.06c1.24,3.7,2.44,7.4,3.6,11C224.64,548,219,541.92,213.9,534.38Zm43.82-.33c-.32,1.46-.37,1.5-2,1.46-3.8-.08-7.66-.08-11.39-.09-4.27,0-8.68,0-13-.14a4.67,4.67,0,0,1-2.91-1.31c-6-8.12-11.79-16.34-16.6-23.28a3.33,3.33,0,0,1-.31-2.07c1-4,2.07-8.65,3.29-13.61s2.57-10.26,4-15.55a3.15,3.15,0,0,1,1.56-1.16c6.89-1.34,13.7-2.47,21.81-3.75a6.06,6.06,0,0,1,1.84.13l4.84,5.8c5.68,6.81,11,13.23,16.34,19.76a3.69,3.69,0,0,1,0,1.89c-1,4.49-2.13,9.06-3.18,13.47C260.59,521.64,259.08,527.88,257.72,534.05Zm71.63-19.23c-2,4.31-3.88,8.72-5.74,13-2,4.47-4,9.11-6.05,13.63a5.12,5.12,0,0,1-1.92,2.08c-8.44,4.75-18.21,8.1-29.85,10.2a3,3,0,0,1-2-.44c-3.45-2.57-6.91-5.25-10.27-7.83-3.08-2.37-6.25-4.83-9.41-7.2-1.28-1-1.37-1.42-1.07-2.66,2.44-9.78,4.91-20.11,7.52-31.54a2.54,2.54,0,0,1,2.13-2.34c9.84-2.91,20.2-6.13,31.7-9.8a4.73,4.73,0,0,1,1.43-.3,2.08,2.08,0,0,1,1.58.84c2.47,2.56,5.08,5,7.61,7.43,1,.91,2,1.83,2.92,2.75l1.52,1.47.05,0,1.7,1.64c2.56,2.47,5.21,5,7.9,7.48C329.76,513.75,329.81,513.79,329.35,514.82Zm21.23-20a3.19,3.19,0,0,1-.18,1.09c-4.83,3.91-9.63,7.66-14.71,11.65-.78.61-1.58,1.22-2.37,1.85L329,505.28c-6.56-6.24-12.76-12.14-19-18.22a3.7,3.7,0,0,1-.24-1.53c0-4.71,0-9.49,0-14.13,0-6.59,0-13.42-.07-20.13,0-1.26.21-1.58,1.47-2.15,4.85-2.2,9.71-4.56,14.41-6.85l1.72-.84c1.42-.68,1.9-.52,2.69.34,2.95,3.15,6,6.31,8.89,9.38,3.55,3.72,7.23,7.55,10.76,11.39a4.81,4.81,0,0,1,.9,2.88C350.63,475.57,350.62,485.93,350.58,494.83Z" transform="translate(-126.39 -336.57)"/></svg>