<svg id="Layer_1" data-name="Layer 1" xmlns="http://www.w3.org/2000/svg" viewBox="0 0 541.44 541.44"><defs><style>.cls-1{fill:#5d429a;}.cls-2,.cls-3{fill:#f26322;stroke:#5d429a;stroke-miterlimit:10;}.cls-3{font-size:181.86px;font-family:Facon;}</style></defs><circle class="cls-1" cx="270.72" cy="270.72" r="270.72"/><path class="cls-2" d="M571.76,303.74a100.72,100.72,0,0,1-2.12,21.4v-2.58A101.48,101.48,0,0,0,571.76,303.74Z" transform="translate(-121.5 -107.51)"/><path class="cls-2" d="M571,295a66.32,66.32,0,0,1,.72,8.75,101.48,101.48,0,0,1-2.12,18.82V310.88Z" transform="translate(-121.5 -107.51)"/><path class="cls-2" d="M568.68,281.62l-.18,1.13C566.7,270.63,557,253.59,557,253.59c-3-4.21-12.39-11.45-12.39-11.45a68.71,68.71,0,0,0-19.12,5.35c0-.76,0-1.53,0-2.3l.23.22c5.84-3.27,18.93-5.85,18.93-5.85v0S554,246.79,557,251C557,251,567.51,269.46,568.68,281.62Z" transform="translate(-121.5 -107.51)"/><path class="cls-2" d="M568.68,284.21l-3.74,23.38s-3.58,3.43-12.54,5.64a58,58,0,0,1-7.8,1.37s-13-22.51-20-29.48a13.32,13.32,0,0,0-1-.91s.11-.83.28-2.35c6.89,6,20.76,30.15,20.76,30.15,14.73-1.63,20.34-7,20.34-7l3.56-22.25C568.57,283.25,568.63,283.74,568.68,284.21Z" transform="translate(-121.5 -107.51)"/><path class="cls-2" d="M568.5,282.75,564.94,305s-5.61,5.38-20.34,7c0,0-13.87-24.11-20.76-30.15a271.78,271.78,0,0,0,1.65-30.17v-.16c0-1.33,0-2.68,0-4a68.71,68.71,0,0,1,19.12-5.35S554,249.38,557,253.59C557,253.59,566.7,270.63,568.5,282.75Z" transform="translate(-121.5 -107.51)"/><path class="cls-2" d="M565.87,309.21l.94,17.29s0,.14-.12.38l-.82-15.09c-3,3.76-22.2,7.15-22.2,7.15l-.53-.14c.22-.82.39-1.64.53-2.46,0,0,4.23-.75,9-1.92C558.13,313.09,564.31,311.2,565.87,309.21Z" transform="translate(-121.5 -107.51)"/><path class="cls-2" d="M566.69,326.88l.12,2.22s-.68,2.3-2,5.9l-.13-2.28C565.75,329.82,566.43,327.71,566.69,326.88Z" transform="translate(-121.5 -107.51)"/><path class="cls-2" d="M565.87,311.79l.82,15.09c-.26.83-.94,2.94-2,5.84l-.55-10.28c-2.86,3.63-21,6.92-22.15,7.13l-1.63-.75a35.86,35.86,0,0,0,3.35-9.88S562.92,315.55,565.87,311.79Z" transform="translate(-121.5 -107.51)"/><path class="cls-2" d="M539.3,372.37c-.42.24-7.14,4.13-14.6,4.13v-.13c6.75,0,17.8-5.66,17.8-5.66,11.36-9.53,18.9-26.7,22.28-35.71l.26,4.74s-8.42,28.29-24.32,41.61c0,0-12.38,6.32-18.93,5.61v-.07A79.51,79.51,0,0,0,539.3,375a34.64,34.64,0,0,1-6.8,2.89A63.63,63.63,0,0,0,539.3,372.37Z" transform="translate(-121.5 -107.51)"/><path class="cls-2" d="M564.65,332.72l.13,2.28c-3.38,9-10.92,26.18-22.28,35.71,0,0-11,5.63-17.8,5.66a10.41,10.41,0,0,1-1.14-.05l-1.2-14.73.2-.21,1,12.34c6.55.7,18.94-5.6,18.94-5.6C553.73,358.7,561.22,341.82,564.65,332.72Z" transform="translate(-121.5 -107.51)"/><path class="cls-2" d="M564.1,322.44l.55,10.28c-3.43,9.1-10.92,26-22.15,35.4,0,0-12.39,6.3-18.94,5.6l-1-12.34c5.39-5.68,17.35-19.46,19.33-31.8H542C543.08,329.36,561.24,326.07,564.1,322.44Z" transform="translate(-121.5 -107.51)"/><polygon class="cls-2" points="425.9 128.29 432.45 136.7 426.4 131.53 425.9 130.88 425.9 128.29"/><polygon class="cls-2" points="426.4 131.53 432.45 139.3 425.9 133.69 425.9 131.1 426.4 131.53"/><path class="cls-2" d="M552.4,313.23l.3,1.19c-4.8,1.17-9,1.92-9,1.92-.14.82-.31,1.64-.53,2.46-2.46,9.57-10.14,19.61-15.61,25.83l-1.29-.46a80.23,80.23,0,0,0,15.09-26.76l-.53-1c.18-.51.36-1,.53-1.56,0,0-9.56-18.9-18.34-29.18l1.57-.52c7.09,7,20,29.48,20,29.48A58,58,0,0,0,552.4,313.23Z" transform="translate(-121.5 -107.51)"/><path class="cls-2" d="M547.26,227.46v4.44s-1.06.21-2.71.58c-20.85-18.84-45.39-26.44-52.28-28.3.2-1.62.45-3.46.77-5.55C493,198.63,522.72,205.25,547.26,227.46Z" transform="translate(-121.5 -107.51)"/><path class="cls-2" d="M544.6,239.54v0s-13.09,2.58-18.93,5.85l-.23-.22c0-.09,0-.19,0-.27A68.42,68.42,0,0,1,544.6,239.54Z" transform="translate(-121.5 -107.51)"/><path class="cls-2" d="M544.6,237v2.57a68.42,68.42,0,0,0-19.17,5.38c0,.08,0,.18,0,.27a104.12,104.12,0,0,0-12.28-9.69v-.23a25,25,0,0,0-5.43-5.84,107.76,107.76,0,0,1,17.94,13.39C531.51,239.54,544.6,237,544.6,237Z" transform="translate(-121.5 -107.51)"/><path class="cls-2" d="M544.6,235.12V237s-13.09,2.57-18.93,5.85a107.76,107.76,0,0,0-17.94-13.39c-5.14-4.26-12.45-8.48-18.71-11.73.17-2.56.56-6.2,1.35-11.41,0,0,.57.13,1.61.4-.94,9,.12,9.31.12,9.31,20.33,6.32,36.23,21.74,36.23,21.74,3.49-2,9.56-3.66,13.89-4.71C543,233.71,543.81,234.4,544.6,235.12Z" transform="translate(-121.5 -107.51)"/><path class="cls-2" d="M543.14,318.8l.53.14a35.86,35.86,0,0,1-3.35,9.88c-5.84,11.92-16.84,22.85-18.43,24.4l-.19-2.41s2.5-2.38,5.83-6.18C533,338.41,540.68,328.37,543.14,318.8Z" transform="translate(-121.5 -107.51)"/><path class="cls-2" d="M544.55,232.48l-2.33.55c-20.62-17.61-44-24.68-50.24-26.34.08-.77.17-1.61.29-2.51C499.16,206,523.7,213.64,544.55,232.48Z" transform="translate(-121.5 -107.51)"/><path class="cls-2" d="M542,329.57h-.06c-2,12.34-13.94,26.12-19.33,31.8l-.67-8.16c1.59-1.55,12.59-12.48,18.43-24.4Z" transform="translate(-121.5 -107.51)"/><path class="cls-2" d="M541.33,314.82c-.17.53-.35,1.05-.53,1.56-2.23-4.3-11.2-21.08-19.1-29.59,0,0-2.59,1.41-6.42,3.38.06-.84.12-1.74.18-2.69,3.73-1.92,6.24-3.29,6.24-3.29.42.46.85.94,1.29,1.45C531.77,295.92,541.33,314.82,541.33,314.82Z" transform="translate(-121.5 -107.51)"/><path class="cls-2" d="M540.8,316.38l.53,1a80.23,80.23,0,0,1-15.09,26.76,63.75,63.75,0,0,1-6.65,6.9h-.06a83.77,83.77,0,0,0,9-12.32v0A79.59,79.59,0,0,0,540.8,316.38Z" transform="translate(-121.5 -107.51)"/><path class="cls-2" d="M542.22,233c-4.33,1.05-10.4,2.76-13.89,4.71,0,0-15.9-15.42-36.23-21.74,0,0-1.06-.35-.12-9.31C498.22,208.35,521.6,215.42,542.22,233Z" transform="translate(-121.5 -107.51)"/><path class="cls-2" d="M521.7,286.79c7.9,8.51,16.87,25.29,19.1,29.59a79.59,79.59,0,0,1-12.25,22.34,75.37,75.37,0,0,0,7.14-15.66s-10.51-20.8-19.63-30.62l-1,.57c.1-.83.19-1.78.27-2.84C519.11,288.2,521.7,286.79,521.7,286.79Z" transform="translate(-121.5 -107.51)"/><path class="cls-2" d="M532.5,377.85a34.64,34.64,0,0,0,6.8-2.89,79.51,79.51,0,0,1-17.52,11.93l-.2-2.49A90.16,90.16,0,0,0,532.5,377.85Z" transform="translate(-121.5 -107.51)"/><path class="cls-2" d="M539.3,372.37a63.63,63.63,0,0,1-6.8,5.48,24.75,24.75,0,0,1-10.8,1l-.55.28-.2-2.49.75-.38a20.29,20.29,0,0,0,3,.22C532.16,376.5,538.88,372.61,539.3,372.37Z" transform="translate(-121.5 -107.51)"/><path class="cls-2" d="M516.06,292.44c9.12,9.82,19.63,30.62,19.63,30.62a75.37,75.37,0,0,1-7.14,15.66v0a69.15,69.15,0,0,1-8.95,9.73c-21.74.47-34.6-8.65-34.6-8.65V310.12c10.16-4.46,29.43-14.24,29.43-14.24A11.38,11.38,0,0,0,515,293Z" transform="translate(-121.5 -107.51)"/><path class="cls-2" d="M519.59,348.48a69.15,69.15,0,0,0,8.95-9.73,83.77,83.77,0,0,1-9,12.32c-21.7.45-34.54-8.65-34.54-8.65v-2.59S497.85,349,519.59,348.48Z" transform="translate(-121.5 -107.51)"/><path class="cls-2" d="M525.49,251.53v.16a268.75,268.75,0,0,1-1.93,29.93l.28.24c-.17,1.52-.28,2.35-.28,2.35a13.32,13.32,0,0,1,1,.91l-1.57.52c-.44-.51-.87-1-1.29-1.45,0,0-2.51,1.37-6.24,3.29,0-.71.08-1.44.12-2.18l4.48-2.26c1.64-3.5,1.64-35.29,1.64-35.29s0,0,0,0c0-1.61,0-2.58,0-2.58-1.6-2.66-4.74-5.49-8.55-8.22,0-.67,0-1.16,0-1.43a104.12,104.12,0,0,1,12.28,9.69c0,.77,0,1.54,0,2.3l-.05,0C525.47,248.86,525.48,250.2,525.49,251.53Z" transform="translate(-121.5 -107.51)"/><path class="cls-2" d="M521.7,378.87a24.75,24.75,0,0,0,10.8-1,90.16,90.16,0,0,1-10.92,6.55l-.43-5.25Z" transform="translate(-121.5 -107.51)"/><path class="cls-2" d="M524.7,376.37v.13a20.29,20.29,0,0,1-3-.22l-.75.38-1-12.61s1-.9,2.44-2.46l1.2,14.73A10.41,10.41,0,0,0,524.7,376.37Z" transform="translate(-121.5 -107.51)"/><path class="cls-2" d="M521.58,384.4l.2,2.49A145.52,145.52,0,0,1,487.64,399V396.4A145.45,145.45,0,0,0,521.58,384.4Z" transform="translate(-121.5 -107.51)"/><path class="cls-2" d="M521.68,247.73s0,0,0,0,0,31.79-1.64,35.29l-4.48,2.26c0-.86.07-1.75.1-2.65,2.67-1.33,4.38-2.2,4.38-2.2C521.41,277.56,521.65,255.37,521.68,247.73Z" transform="translate(-121.5 -107.51)"/><path class="cls-2" d="M521.7,245.15s0,1,0,2.58c-1.6-2.66-4.74-5.49-8.54-8.22,0-1,0-1.9,0-2.58C517,239.66,520.1,242.49,521.7,245.15Z" transform="translate(-121.5 -107.51)"/><path class="cls-2" d="M521.15,379.15l.43,5.25a145.45,145.45,0,0,1-33.94,12v-.14Z" transform="translate(-121.5 -107.51)"/><path class="cls-2" d="M521.68,247.73c0,7.64-.27,29.83-1.62,32.72,0,0-1.71.87-4.38,2.2.38-10.07.38-22.07.38-22.07a19.68,19.68,0,0,0-3.25-3.9c.22-6.16.3-12.93.33-17.17C516.94,242.24,520.08,245.07,521.68,247.73Z" transform="translate(-121.5 -107.51)"/><polygon class="cls-2" points="399.45 269.15 399.65 271.63 366.14 288.75 366.14 286.16 399.45 269.15"/><path class="cls-2" d="M485,342.42s12.84,9.1,34.54,8.65a59.77,59.77,0,0,1-5.57,5.65c-21.74.47-34.6-8.65-34.6-8.65V312.24a35,35,0,0,0,5.63-2.12v32.3Z" transform="translate(-121.5 -107.51)"/><path class="cls-2" d="M516.06,260.58s0,12-.38,22.07C507,287,488.21,296.28,485,296.81c0,0-32.95-18.4-36.56-24.52l.15-2.44c10.91,7.61,27.88,17.09,27.88,17.09,4.21-.7,35.06-16.37,35.06-16.37.65-1.39,1.05-7.3,1.29-13.89A19.68,19.68,0,0,1,516.06,260.58Z" transform="translate(-121.5 -107.51)"/><path class="cls-2" d="M515.68,282.65c0,.9-.07,1.79-.1,2.65-8.71,4.36-27.39,13.57-30.59,14.11,0,0-33.9-18.94-36.7-24.78l.14-2.34C452,278.41,485,296.81,485,296.81,488.21,296.28,507,287,515.68,282.65Z" transform="translate(-121.5 -107.51)"/><path class="cls-2" d="M515.58,285.3c0,.74-.08,1.47-.12,2.18-9,4.63-25,12.47-30.47,12.24v-.31C488.19,298.87,506.87,289.66,515.58,285.3Z" transform="translate(-121.5 -107.51)"/><path class="cls-2" d="M515.46,287.48c-.06.95-.12,1.85-.18,2.69-9,4.64-24.87,12.37-30.29,12.14v-2.59C490.44,300,506.5,292.11,515.46,287.48Z" transform="translate(-121.5 -107.51)"/><path class="cls-2" d="M515.28,290.17c-.08,1.06-.17,2-.27,2.84-4.26,2.28-20.34,10.78-30,13.84v-4.54C490.41,302.54,506.29,294.81,515.28,290.17Z" transform="translate(-121.5 -107.51)"/><path class="cls-2" d="M515,293a11.38,11.38,0,0,1-.59,2.87s-19.27,9.78-29.43,14.24v-3.27C494.67,303.79,510.75,295.29,515,293Z" transform="translate(-121.5 -107.51)"/><path class="cls-2" d="M513.16,235.27v.23a91.28,91.28,0,0,0-23-11.6l-.86-.4h0c-.18-.36-.45-1.4-.33-4.46.1,1.92.47,2,.47,2a85.94,85.94,0,0,1,18.3,8.36A25,25,0,0,1,513.16,235.27Z" transform="translate(-121.5 -107.51)"/><path class="cls-2" d="M513.16,235.5c0,.27,0,.76,0,1.43-7.33-5.29-17.11-10.24-23-13A91.28,91.28,0,0,1,513.16,235.5Z" transform="translate(-121.5 -107.51)"/><path class="cls-2" d="M513.15,236.93c0,.68,0,1.55,0,2.58C501.93,231.43,485,224.14,485,224.14c-18.47,4-34.6,15.19-34.6,15.19l-.57,9.67-.17.09.74-12.35s14.7-10.23,32.1-14.62c.84-.14,1.67-.24,2.5-.32l0-.25c.22.1,1.83.8,4.27,1.94h0c.08.15.14.17.14.17l.72.23C496,226.69,505.82,231.64,513.15,236.93Z" transform="translate(-121.5 -107.51)"/><path class="cls-2" d="M513.14,239.51c0,4.24-.11,11-.33,17.17-10-9.6-33.45-19.71-33.45-19.71-12.19,2.62-23.36,8.4-29.54,12l.57-9.67s16.13-11.22,34.6-15.19C485,224.14,501.93,231.43,513.14,239.51Z" transform="translate(-121.5 -107.51)"/><path class="cls-2" d="M512.81,256.68c-.24,6.59-.64,12.5-1.29,13.89,0,0-30.85,15.67-35.06,16.37,0,0-17-9.48-27.88-17.09L449.82,249c6.18-3.63,17.35-9.41,29.54-12C479.36,237,502.84,247.08,512.81,256.68Z" transform="translate(-121.5 -107.51)"/><path class="cls-2" d="M489,217.7c6.26,3.25,13.57,7.47,18.71,11.73a85.94,85.94,0,0,0-18.3-8.36s-.37-.12-.47-2C489,218.63,489,218.18,489,217.7Z" transform="translate(-121.5 -107.51)"/><path class="cls-2" d="M492.27,204.18c-.12.9-.21,1.74-.29,2.51-1-.27-1.61-.4-1.61-.4-.79,5.21-1.18,8.85-1.35,11.41l-.1-.06A93.92,93.92,0,0,1,490,206.15c.11-.77.23-1.59.36-2.45C490.37,203.7,491,203.84,492.27,204.18Z" transform="translate(-121.5 -107.51)"/><path class="cls-2" d="M488.29,205.9l1.72.25a93.92,93.92,0,0,0-1.09,11.49L485.71,216C486.24,212.53,487.09,208.33,488.29,205.9Z" transform="translate(-121.5 -107.51)"/><path class="cls-2" d="M488.92,217.64c0,.54,0,1,0,1.39-.12,3.06.15,4.1.33,4.46-2.44-1.14-4.05-1.84-4.27-1.94.06-.72.29-2.92.69-5.55Z" transform="translate(-121.5 -107.51)"/><path class="cls-2" d="M487.36,205.72l.93.18c-1.2,2.43-2.05,6.63-2.58,10.1l-.34-.16A65.89,65.89,0,0,1,487.36,205.72Z" transform="translate(-121.5 -107.51)"/><path class="cls-2" d="M488.29,203.31a16,16,0,0,0-.93,2.41,72.38,72.38,0,0,0-7.36-.78,14.1,14.1,0,0,1,.67-1.63,63,63,0,0,0-9.75-1A77.11,77.11,0,0,1,488.29,203.31Z" transform="translate(-121.5 -107.51)"/><path class="cls-2" d="M487.36,205.72a65.89,65.89,0,0,0-2,10.12c-3-1.49-5.54-2.67-7.13-3.39a47.26,47.26,0,0,1,1.76-7.51A72.38,72.38,0,0,1,487.36,205.72Z" transform="translate(-121.5 -107.51)"/><path class="cls-2" d="M485.37,215.84l.34.16c-.4,2.63-.63,4.83-.69,5.55h0c-.84.18-1.67.38-2.5.58-16.23,2.59-34.2,14.64-34.2,14.64a27.47,27.47,0,0,0-6.88-2.3l0-.81c.48-.31,1.18-.75,2.06-1.28a23.86,23.86,0,0,1,4.77,1.79s14.63-9.81,29.42-13.63a47.5,47.5,0,0,1,7.28-1.32S485.11,217.83,485.37,215.84Z" transform="translate(-121.5 -107.51)"/><path class="cls-2" d="M485.37,215.84c-.26,2-.38,3.37-.38,3.37a47.5,47.5,0,0,0-7.28,1.32l-.35-1.32s.28-3.13.88-6.76C479.83,213.17,482.36,214.35,485.37,215.84Z" transform="translate(-121.5 -107.51)"/><path class="cls-2" d="M485,306.85v3.27a35,35,0,0,1-5.63,2.12V308A18.27,18.27,0,0,0,485,306.85Z" transform="translate(-121.5 -107.51)"/><path class="cls-2" d="M480.67,203.31a14.1,14.1,0,0,0-.67,1.63,102.79,102.79,0,0,0-60.93,16.39s-.15,2.82-.19,5.76c-.06-3.59.19-8.35.19-8.35a103.08,103.08,0,0,1,51.85-16.45A63,63,0,0,1,480.67,203.31Z" transform="translate(-121.5 -107.51)"/><path class="cls-2" d="M480,204.94a47.26,47.26,0,0,0-1.76,7.51l-1.78-.79c-18.47,4-34.6,15.2-34.6,15.2l-.3,5c-9.72-2.15-22.49-1.71-22.49-1.71a22.28,22.28,0,0,1-.19-3.1c0-2.94.19-5.76.19-5.76A102.79,102.79,0,0,1,480,204.94Z" transform="translate(-121.5 -107.51)"/><path class="cls-2" d="M478.24,212.45c-.6,3.63-.88,6.76-.88,6.76-13,1.26-27.76,9.47-33.84,13.16-.64-.17-1.29-.33-2-.47l.3-5s16.13-11.22,34.6-15.2Z" transform="translate(-121.5 -107.51)"/><path class="cls-2" d="M477.36,219.21l.35,1.32c-14.79,3.82-29.42,13.63-29.42,13.63a23.86,23.86,0,0,0-4.77-1.79C449.6,228.68,464.39,220.47,477.36,219.21Z" transform="translate(-121.5 -107.51)"/><path class="cls-2" d="M411.44,218.74a102.78,102.78,0,0,1,59.48-16.45,103.08,103.08,0,0,0-51.85,16.45s-.25,4.76-.19,8.35c0,1.07,0,2.16,0,3.14-1.22,0-2.33-.07-3.32-.07v-8.62s-1.67,1.22-4.32,3.55C411.27,222,411.44,218.74,411.44,218.74Z" transform="translate(-121.5 -107.51)"/><path class="cls-2" d="M482.49,222.12c-17.4,4.39-32.1,14.62-32.1,14.62l-.74,12.35c-1.49.88-2.69,1.63-3.53,2.17l1.11-12.86a42.5,42.5,0,0,0-5.94-2.06l.12-1.88a27.47,27.47,0,0,1,6.88,2.3S466.26,224.71,482.49,222.12Z" transform="translate(-121.5 -107.51)"/><path class="cls-2" d="M449.82,249l-1.24,20.85-.16-.11,1.23-20.65Z" transform="translate(-121.5 -107.51)"/><path class="cls-2" d="M449.65,249.09l-1.23,20.65c-1.32-.92-2.56-1.83-3.65-2.68l1.35-15.8C447,250.72,448.16,250,449.65,249.09Z" transform="translate(-121.5 -107.51)"/><path class="cls-2" d="M447.23,238.4l-1.11,12.86c-.88.57-1.36.91-1.36.91l-.05.87.23-13a38.33,38.33,0,0,0-3.78-1.41l.13-2.26A42.5,42.5,0,0,1,447.23,238.4Z" transform="translate(-121.5 -107.51)"/><path class="cls-2" d="M446.12,251.26l-1.35,15.8-.31-.23.25-13.79.05-.87S445.24,251.83,446.12,251.26Z" transform="translate(-121.5 -107.51)"/><path class="cls-2" d="M444.94,240l-.23,13-.8,13.35c-2.14-1.71-3.65-3.18-4.15-4.23l1.4-23.56A38.33,38.33,0,0,1,444.94,240Z" transform="translate(-121.5 -107.51)"/><path class="cls-2" d="M444.77,267.06l-.39,4.54.08-4.77Z" transform="translate(-121.5 -107.51)"/><path class="cls-2" d="M443.91,266.39l.8-13.35-.25,13.79Z" transform="translate(-121.5 -107.51)"/><path class="cls-2" d="M444.46,266.83l-.08,4.77-.06.67-.78.43.37-6.31Z" transform="translate(-121.5 -107.51)"/><polygon class="cls-2" points="322.82 164.76 322.88 164.09 322.82 167.35 321.87 167.87 322.03 165.19 322.82 164.76"/><path class="cls-2" d="M443.91,266.39l-.37,6.31-31,17.1s-.55-.32-1.46-.95l21.69-12,1.64-34.6c-6.56-2.86-14-3.72-19.65-3.87.72-.59,1.46-1.15,2.22-1.66,0,0,12.34-1.93,24.2,1.84l-1.4,23.56C440.26,263.21,441.77,264.68,443.91,266.39Z" transform="translate(-121.5 -107.51)"/><path class="cls-2" d="M412.52,289.8l31-17.1-.17,2.68-30.85,17A39.93,39.93,0,0,1,409,290l2-1.12C412,289.48,412.52,289.8,412.52,289.8Z" transform="translate(-121.5 -107.51)"/><path class="cls-2" d="M441.56,231.9c.67.14,1.32.3,2,.47-.88.53-1.58,1-2.06,1.28Z" transform="translate(-121.5 -107.51)"/><path class="cls-2" d="M441.56,231.9l-.1,1.75-.79.51c-5.41-2.85-15.06-3.7-21.79-3.93,0-1,0-2.07,0-3.14a22.28,22.28,0,0,0,.19,3.1S431.84,229.75,441.56,231.9Z" transform="translate(-121.5 -107.51)"/><path class="cls-2" d="M441.46,233.65l0,.81c-9.7-2.11-22.34-1.67-22.34-1.67a21.82,21.82,0,0,1-.19-2.56c6.73.23,16.38,1.08,21.79,3.93Z" transform="translate(-121.5 -107.51)"/><path class="cls-2" d="M441.41,234.46l-.12,1.88c-11.69-3.18-24.33-2.18-24.33-2.18a33.52,33.52,0,0,0-5,4.24c-1.11,0-2.11,0-3,.09a26.91,26.91,0,0,1,6.62-5.47v-2.86c1,0,2.1,0,3.32.07a21.82,21.82,0,0,0,.19,2.56S431.71,232.35,441.41,234.46Z" transform="translate(-121.5 -107.51)"/><path class="cls-2" d="M441.29,236.34l-.13,2.26c-11.86-3.77-24.2-1.84-24.2-1.84-.76.51-1.5,1.07-2.22,1.66-1,0-1.94,0-2.82,0a33.52,33.52,0,0,1,5-4.24S429.6,233.16,441.29,236.34Z" transform="translate(-121.5 -107.51)"/><path class="cls-2" d="M434.39,242.29l-1.64,34.6-21.69,12c-3.64-2.47-12.95-9.59-15.49-19,1.49-4.52,7.89-22.16,19.17-31.39C420.43,238.57,427.83,239.43,434.39,242.29Z" transform="translate(-121.5 -107.51)"/><path class="cls-2" d="M415.56,230.42V233a26.91,26.91,0,0,0-6.62,5.47c-1,0-1.77.11-2.36.17C409.42,235.1,412.46,232.12,415.56,230.42Z" transform="translate(-121.5 -107.51)"/><path class="cls-2" d="M415.56,230.16v.26c-3.1,1.7-6.14,4.68-9,8.24-.76.06-1.18.12-1.18.12-12.29,8.32-19.36,27.06-21.24,32.57l-3.7,2.62c7-23.16,23.07-39.5,30.8-46.29a19.22,19.22,0,0,0,.18,2.51S413.06,230.14,415.56,230.16Z" transform="translate(-121.5 -107.51)"/><path class="cls-2" d="M415.56,224.14v6c-2.5,0-4.12,0-4.12,0a19.22,19.22,0,0,1-.18-2.51C413.9,225.35,415.56,224.14,415.56,224.14Z" transform="translate(-121.5 -107.51)"/><path class="cls-2" d="M415.56,221.54v2.6s-1.66,1.21-4.3,3.54c0-.81,0-1.7,0-2.59C413.89,222.76,415.56,221.54,415.56,221.54Z" transform="translate(-121.5 -107.51)"/><path class="cls-2" d="M411.92,238.4c.88,0,1.83,0,2.82,0-11.28,9.23-17.68,26.87-19.17,31.39a15.22,15.22,0,0,1-.34-1.52S400.79,249.62,411.92,238.4Z" transform="translate(-121.5 -107.51)"/><path class="cls-2" d="M411.24,225.09c0,.89,0,1.78,0,2.59-7.73,6.79-23.85,23.13-30.8,46.29l-.9.64C385.9,249.76,403.14,232.22,411.24,225.09Z" transform="translate(-121.5 -107.51)"/><path class="cls-2" d="M411.06,288.85,409,290c-4.57-3.45-12.18-10.38-13.79-19.08,0,0,.11-.39.34-1.08C398.11,279.26,407.42,286.38,411.06,288.85Z" transform="translate(-121.5 -107.51)"/><path class="cls-2" d="M408.94,238.49c.87-.05,1.87-.08,3-.09-11.13,11.22-16.69,29.89-16.69,29.89a15.22,15.22,0,0,0,.34,1.52c-.23.69-.34,1.08-.34,1.08,1.61,8.7,9.22,15.63,13.79,19.08L401,294.42s-14-8.32-17-20.31l6.86-4.86S398.88,249.39,408.94,238.49Z" transform="translate(-121.5 -107.51)"/><path class="cls-2" d="M406.58,238.66c.59-.06,1.39-.12,2.36-.17-10.06,10.9-18.16,30.76-18.16,30.76l-6.86,4.86c-.1-.39-.19-.79-.26-1.2,0,0,.17-.56.5-1.56l6.62-4.69S397.65,249.83,406.58,238.66Z" transform="translate(-121.5 -107.51)"/><path class="cls-2" d="M405.4,238.78s.42-.06,1.18-.12c-8.93,11.17-15.8,28-15.8,28l-6.62,4.69C386,265.84,393.11,247.1,405.4,238.78Z" transform="translate(-121.5 -107.51)"/><polygon class="cls-2" points="395.51 231.94 375.58 252.56 321.48 289.93 395.51 231.94"/><polygon class="cls-2" points="392.87 188.63 372.95 209.27 318.85 246.63 392.87 188.63"/><polygon class="cls-2" points="383.2 138.1 363.27 158.73 309.17 196.1 383.2 138.1"/><polygon class="cls-2" points="373.92 273.61 338.4 310.37 242.01 376.96 373.92 273.61"/><polygon class="cls-2" points="346.19 249.23 338.4 267.45 248.09 331.63 346.19 249.23"/><polygon class="cls-2" points="346.19 249.23 248.09 331.63 185.18 368.11 297.14 276.89 320.44 263.75 266.66 305.89 320.75 268.52 331.25 257.66 346.19 249.23"/><polygon class="cls-2" points="342.06 217.63 233.89 315.63 159.14 360.72 342.06 217.63"/><polygon class="cls-2" points="340.68 247.89 331.25 257.66 320.44 263.75 340.68 247.89"/><polygon class="cls-2" points="338.4 267.45 133.77 433.79 248.09 331.63 338.4 267.45"/><polygon class="cls-2" points="334.69 196.58 254.86 271.63 236.54 283.06 251.78 267.3 212.52 298.05 168.9 325.27 334.69 196.58"/><polygon class="cls-2" points="334.69 196.58 168.9 325.27 168.88 325.28 58.67 410.83 217.65 273.41 223.53 269.55 211.08 279.31 257.2 247.45 334.69 196.58"/><polygon class="cls-2" points="331.25 257.66 320.75 268.52 266.66 305.89 320.44 263.75 331.25 257.66"/><path class="cls-2" d="M442.49,288.85,287.74,408,345,347.41l34.56-22.27,9.65-24.54Zm-45.85,31.61,19.93-20.64-74,58Z" transform="translate(-121.5 -107.51)"/><polygon class="cls-2" points="301.43 147.68 281.49 168.31 227.39 205.68 301.43 147.68"/><polygon class="cls-2" points="295.07 192.31 275.13 212.94 221.04 250.31 295.07 192.31"/><polygon class="cls-2" points="285.11 221.32 265.18 241.94 257.2 247.45 223.53 269.55 285.11 221.32"/><polygon class="cls-2" points="283.49 114.03 262.16 137.89 183.82 193.09 283.49 114.03"/><polygon class="cls-2" points="267.71 193.09 258.06 217.63 223.49 239.9 267.71 193.09"/><polygon class="cls-2" points="267.71 193.09 223.49 239.9 122.27 305.12 267.71 193.09"/><polygon class="cls-2" points="257.2 247.45 211.08 279.31 223.53 269.55 257.2 247.45"/><polygon class="cls-2" points="251.78 267.3 236.54 283.06 212.52 298.05 251.78 267.3"/><polygon class="cls-2" points="248.09 179.43 70.18 318.33 173 225.21 248.09 179.43"/><polygon class="cls-2" points="212.52 298.05 236.54 283.06 231.85 287.92 177.76 325.28 212.52 298.05"/><polygon class="cls-2" points="205.9 214.57 185.96 235.2 131.87 272.57 205.9 214.57"/><text class="cls-3" transform="translate(79.05 404.86)">StS</text></svg>