<svg id="Layer_1" data-name="Layer 1" xmlns="http://www.w3.org/2000/svg" viewBox="0 0 561.67 184.65"><defs><style>.cls-1{fill:#f26322;stroke:#5d429a;stroke-miterlimit:10;}</style></defs><path class="cls-1" d="M1069.79,344.57a46.53,46.53,0,0,1-1,10v-1.21A46.78,46.78,0,0,0,1069.79,344.57Z" transform="translate(-611.02 -271.67)"/><path class="cls-1" d="M1069.45,340.46a31.64,31.64,0,0,1,.34,4.11,46.78,46.78,0,0,1-1,8.82v-5.47Z" transform="translate(-611.02 -271.67)"/><path class="cls-1" d="M1068.35,334.2l-.09.53c-.84-5.68-5.4-13.68-5.4-13.68-1.42-2-5.8-5.36-5.8-5.36a31.87,31.87,0,0,0-9,2.51c0-.36,0-.72,0-1.08l.1.1c2.74-1.53,8.88-2.74,8.88-2.74h0s4.38,3.4,5.8,5.37C1062.86,319.84,1067.8,328.5,1068.35,334.2Z" transform="translate(-611.02 -271.67)"/><path class="cls-1" d="M1068.35,335.41l-1.76,11s-1.68,1.61-5.88,2.65a27.61,27.61,0,0,1-3.65.64s-6.08-10.55-9.4-13.82a5.94,5.94,0,0,0-.47-.43s.06-.39.14-1.1c3.23,2.83,9.73,14.13,9.73,14.13,6.9-.76,9.53-3.28,9.53-3.28l1.67-10.43C1068.3,335,1068.32,335.19,1068.35,335.41Z" transform="translate(-611.02 -271.67)"/><path class="cls-1" d="M1068.26,334.73l-1.67,10.43s-2.63,2.52-9.53,3.28c0,0-6.5-11.3-9.73-14.13a129.34,129.34,0,0,0,.77-14.15v-.07c0-.62,0-1.26,0-1.89a31.87,31.87,0,0,1,9-2.51s4.38,3.39,5.8,5.36C1062.86,321.05,1067.42,329.05,1068.26,334.73Z" transform="translate(-611.02 -271.67)"/><path class="cls-1" d="M1067,347.13l.44,8.11-.06.18-.38-7.08c-1.38,1.76-10.41,3.35-10.41,3.35l-.25-.06c.1-.39.19-.77.25-1.16,0,0,2-.35,4.23-.9C1063.4,349,1066.3,348.06,1067,347.13Z" transform="translate(-611.02 -271.67)"/><path class="cls-1" d="M1067.41,355.42l.06,1s-.32,1.08-1,2.77l-.06-1.07C1067,356.79,1067.29,355.8,1067.41,355.42Z" transform="translate(-611.02 -271.67)"/><path class="cls-1" d="M1067,348.34l.38,7.08c-.12.38-.44,1.37-1,2.73l-.26-4.82c-1.34,1.71-9.85,3.25-10.39,3.35l-.76-.35a17.19,17.19,0,0,0,1.57-4.64S1065.65,350.1,1067,348.34Z" transform="translate(-611.02 -271.67)"/><path class="cls-1" d="M1054.57,376.74a15.14,15.14,0,0,1-6.84,1.94v-.06c3.16,0,8.34-2.66,8.34-2.66,5.33-4.47,8.86-12.51,10.45-16.74l.12,2.22s-4,13.27-11.4,19.51c0,0-5.81,3-8.88,2.63v0a37.14,37.14,0,0,0,8.21-5.6,15.28,15.28,0,0,1-3.19,1.36A29.62,29.62,0,0,0,1054.57,376.74Z" transform="translate(-611.02 -271.67)"/><path class="cls-1" d="M1066.46,358.15l.06,1.07c-1.59,4.23-5.12,12.27-10.45,16.74,0,0-5.18,2.64-8.34,2.66a4.63,4.63,0,0,1-.54,0l-.56-6.9.09-.1.47,5.78c3.07.33,8.88-2.62,8.88-2.62C1061.33,370.33,1064.85,362.42,1066.46,358.15Z" transform="translate(-611.02 -271.67)"/><path class="cls-1" d="M1066.2,353.33l.26,4.82c-1.61,4.27-5.13,12.18-10.39,16.6,0,0-5.81,2.95-8.88,2.62l-.47-5.78c2.53-2.66,8.14-9.13,9.07-14.91h0C1056.35,356.58,1064.86,355,1066.2,353.33Z" transform="translate(-611.02 -271.67)"/><polygon class="cls-1" points="447.35 41.05 450.42 44.99 447.59 42.57 447.35 42.27 447.35 41.05"/><polygon class="cls-1" points="447.59 42.57 450.42 46.21 447.35 43.58 447.35 42.37 447.59 42.57"/><path class="cls-1" d="M1060.71,349l.14.55c-2.25.55-4.23.9-4.23.9-.06.39-.15.77-.25,1.16-1.15,4.48-4.75,9.19-7.31,12.11l-.61-.22a37.54,37.54,0,0,0,7.07-12.55s-.08-.17-.24-.48c.08-.24.17-.48.24-.73,0,0-4.48-8.86-8.6-13.68l.74-.24c3.32,3.27,9.4,13.82,9.4,13.82A27.61,27.61,0,0,0,1060.71,349Z" transform="translate(-611.02 -271.67)"/><path class="cls-1" d="M1058.31,308.81v2.08l-1.28.27a63,63,0,0,0-24.51-13.27c.1-.76.22-1.62.37-2.6A62.58,62.58,0,0,1,1058.31,308.81Z" transform="translate(-611.02 -271.67)"/><path class="cls-1" d="M1057.06,314.47h0s-6.14,1.21-8.88,2.74l-.1-.1s0-.09,0-.13A32.15,32.15,0,0,1,1057.06,314.47Z" transform="translate(-611.02 -271.67)"/><path class="cls-1" d="M1057.06,313.27v1.2a32.15,32.15,0,0,0-9,2.52s0,.09,0,.13a48.33,48.33,0,0,0-5.76-4.54v-.11a11.53,11.53,0,0,0-2.55-2.74,50.11,50.11,0,0,1,8.41,6.28C1050.92,314.47,1057.06,313.27,1057.06,313.27Z" transform="translate(-611.02 -271.67)"/><path class="cls-1" d="M1057.06,312.4v.87s-6.14,1.2-8.88,2.74a50.11,50.11,0,0,0-8.41-6.28,53.75,53.75,0,0,0-8.77-5.5c.08-1.2.27-2.91.64-5.35l.75.19c-.44,4.2,0,4.37,0,4.37,9.54,3,17,10.19,17,10.19a29.66,29.66,0,0,1,6.51-2.21C1056.31,311.74,1056.69,312.06,1057.06,312.4Z" transform="translate(-611.02 -271.67)"/><path class="cls-1" d="M1056.37,351.63l.25.06a17.19,17.19,0,0,1-1.57,4.64c-2.74,5.58-7.89,10.71-8.64,11.43l-.09-1.13s1.17-1.11,2.74-2.89C1051.62,360.82,1055.22,356.11,1056.37,351.63Z" transform="translate(-611.02 -271.67)"/><path class="cls-1" d="M1057,311.16l-1.09.26a63.43,63.43,0,0,0-23.55-12.35c0-.36.08-.75.13-1.18A63,63,0,0,1,1057,311.16Z" transform="translate(-611.02 -271.67)"/><path class="cls-1" d="M1055.81,356.68h0c-.93,5.78-6.54,12.25-9.07,14.91l-.31-3.83c.75-.72,5.9-5.85,8.64-11.43Z" transform="translate(-611.02 -271.67)"/><path class="cls-1" d="M1055.52,349.76c-.07.25-.16.49-.24.73-1-2-5.25-9.88-9-13.87,0,0-1.21.66-3,1.59,0-.4.06-.82.09-1.27,1.75-.89,2.92-1.54,2.92-1.54.2.22.4.44.6.68C1051,340.9,1055.52,349.76,1055.52,349.76Z" transform="translate(-611.02 -271.67)"/><path class="cls-1" d="M1055.28,350.49c.16.31.24.48.24.48a37.54,37.54,0,0,1-7.07,12.55,29.75,29.75,0,0,1-3.12,3.23h0a39.07,39.07,0,0,0,4.22-5.77h0A37.36,37.36,0,0,0,1055.28,350.49Z" transform="translate(-611.02 -271.67)"/><path class="cls-1" d="M1055.94,311.42a29.66,29.66,0,0,0-6.51,2.21s-7.45-7.23-17-10.19c0,0-.49-.17,0-4.37A63.43,63.43,0,0,1,1055.94,311.42Z" transform="translate(-611.02 -271.67)"/><path class="cls-1" d="M1046.32,336.62c3.71,4,7.91,11.86,9,13.87a37.36,37.36,0,0,1-5.75,10.48,35.44,35.44,0,0,0,3.35-7.35s-4.93-9.75-9.2-14.35l-.5.26c0-.38.09-.83.13-1.32C1045.11,337.28,1046.32,336.62,1046.32,336.62Z" transform="translate(-611.02 -271.67)"/><path class="cls-1" d="M1051.38,379.31a15.28,15.28,0,0,0,3.19-1.36,37.14,37.14,0,0,1-8.21,5.6l-.09-1.17A43,43,0,0,0,1051.38,379.31Z" transform="translate(-611.02 -271.67)"/><path class="cls-1" d="M1054.57,376.74a29.62,29.62,0,0,1-3.19,2.57,11.62,11.62,0,0,1-5.06.48l-.25.13-.1-1.17.35-.18a9.57,9.57,0,0,0,1.41.11A15.14,15.14,0,0,0,1054.57,376.74Z" transform="translate(-611.02 -271.67)"/><path class="cls-1" d="M1043.68,339.27c4.27,4.6,9.2,14.35,9.2,14.35a35.44,35.44,0,0,1-3.35,7.35h0a32.6,32.6,0,0,1-4.2,4.56c-10.19.22-16.22-4.06-16.22-4.06V347.56c4.76-2.09,13.8-6.68,13.8-6.68a5.29,5.29,0,0,0,.27-1.35Z" transform="translate(-611.02 -271.67)"/><path class="cls-1" d="M1045.33,365.54a32.6,32.6,0,0,0,4.2-4.56,39.07,39.07,0,0,1-4.22,5.77c-10.18.22-16.2-4.05-16.2-4.05v-1.22S1035.14,365.76,1045.33,365.54Z" transform="translate(-611.02 -271.67)"/><path class="cls-1" d="M1048.1,320.09v.07a126.42,126.42,0,0,1-.91,14l.14.11c-.08.71-.14,1.1-.14,1.1a5.94,5.94,0,0,1,.47.43l-.74.24c-.2-.24-.4-.46-.6-.68,0,0-1.17.65-2.92,1.54,0-.33,0-.67,0-1l2.1-1.06c.77-1.64.77-16.54.77-16.54h0c0-.76,0-1.21,0-1.21a15,15,0,0,0-4-3.86v-.66a48.33,48.33,0,0,1,5.76,4.54c0,.36,0,.72,0,1.08h0C1048.09,318.84,1048.09,319.47,1048.1,320.09Z" transform="translate(-611.02 -271.67)"/><path class="cls-1" d="M1046.32,379.79a11.62,11.62,0,0,0,5.06-.48,43,43,0,0,1-5.11,3.07l-.2-2.46Z" transform="translate(-611.02 -271.67)"/><path class="cls-1" d="M1047.73,378.62v.06a9.57,9.57,0,0,1-1.41-.11l-.35.18-.48-5.91s.44-.42,1.14-1.15l.56,6.9A4.63,4.63,0,0,0,1047.73,378.62Z" transform="translate(-611.02 -271.67)"/><path class="cls-1" d="M1046.27,382.38l.09,1.17a68.1,68.1,0,0,1-16,5.67V388A68.25,68.25,0,0,0,1046.27,382.38Z" transform="translate(-611.02 -271.67)"/><path class="cls-1" d="M1046.31,318.31h0s0,14.9-.77,16.54l-2.1,1.06c0-.4,0-.82,0-1.24l2-1C1046.18,332.29,1046.3,321.89,1046.31,318.31Z" transform="translate(-611.02 -271.67)"/><path class="cls-1" d="M1046.32,317.1s0,.45,0,1.21a15,15,0,0,0-4-3.86c0-.48,0-.89,0-1.21A15,15,0,0,1,1046.32,317.1Z" transform="translate(-611.02 -271.67)"/><path class="cls-1" d="M1046.07,379.92l.2,2.46a68.25,68.25,0,0,1-15.91,5.63v-.07Z" transform="translate(-611.02 -271.67)"/><path class="cls-1" d="M1046.31,318.31c0,3.58-.13,14-.76,15.34l-2,1c.18-4.72.18-10.35.18-10.35a9.33,9.33,0,0,0-1.53-1.83c.11-2.88.14-6.06.16-8.05A15,15,0,0,1,1046.31,318.31Z" transform="translate(-611.02 -271.67)"/><polygon class="cls-1" points="434.95 107.08 435.05 108.25 419.34 116.27 419.34 115.06 434.95 107.08"/><path class="cls-1" d="M1029.11,362.7s6,4.27,16.2,4.05a26.91,26.91,0,0,1-2.62,2.65c-10.19.22-16.22-4-16.22-4v-16.8a16.08,16.08,0,0,0,2.64-1V362.7Z" transform="translate(-611.02 -271.67)"/><path class="cls-1" d="M1043.68,324.33s0,5.63-.18,10.35c-4.06,2-12.88,6.39-14.39,6.64,0,0-15.44-8.63-17.14-11.5l.07-1.14c5.12,3.57,13.07,8,13.07,8,2-.33,16.44-7.67,16.44-7.67a32.16,32.16,0,0,0,.6-6.52A9.33,9.33,0,0,1,1043.68,324.33Z" transform="translate(-611.02 -271.67)"/><path class="cls-1" d="M1043.5,334.68c0,.42,0,.84,0,1.24-4.08,2-12.84,6.36-14.34,6.62,0,0-15.89-8.88-17.2-11.62l.06-1.1c1.7,2.87,17.14,11.5,17.14,11.5C1030.62,341.07,1039.44,336.72,1043.5,334.68Z" transform="translate(-611.02 -271.67)"/><path class="cls-1" d="M1043.45,335.92c0,.35,0,.69,0,1-4.2,2.17-11.73,5.85-14.29,5.74v-.14C1030.61,342.28,1039.37,338,1043.45,335.92Z" transform="translate(-611.02 -271.67)"/><path class="cls-1" d="M1043.4,336.94c0,.45-.06.87-.09,1.27-4.21,2.17-11.66,5.79-14.2,5.69v-1.22C1031.67,342.79,1039.2,339.11,1043.4,336.94Z" transform="translate(-611.02 -271.67)"/><path class="cls-1" d="M1043.31,338.21c0,.49-.08.94-.13,1.32-2,1.08-9.53,5.06-14.07,6.5V343.9C1031.65,344,1039.1,340.38,1043.31,338.21Z" transform="translate(-611.02 -271.67)"/><path class="cls-1" d="M1043.18,339.53a5.29,5.29,0,0,1-.27,1.35s-9,4.59-13.8,6.68V346C1033.65,344.59,1041.19,340.61,1043.18,339.53Z" transform="translate(-611.02 -271.67)"/><path class="cls-1" d="M1042.32,312.47v.11a42.83,42.83,0,0,0-10.79-5.44l-.4-.19h0a4.75,4.75,0,0,1-.16-2.08c0,.9.22.95.22.95a40.51,40.51,0,0,1,8.58,3.92A11.53,11.53,0,0,1,1042.32,312.47Z" transform="translate(-611.02 -271.67)"/><path class="cls-1" d="M1042.32,312.58v.66a75.6,75.6,0,0,0-10.79-6.1A42.83,42.83,0,0,1,1042.32,312.58Z" transform="translate(-611.02 -271.67)"/><path class="cls-1" d="M1042.32,313.24c0,.32,0,.73,0,1.21a84.73,84.73,0,0,0-13.2-7.2,51.33,51.33,0,0,0-16.22,7.12l-.27,4.53-.07.05.34-5.79a52.08,52.08,0,0,1,15.05-6.85c.39-.07.78-.12,1.17-.16a.87.87,0,0,1,0-.11c.11,0,.86.37,2,.9h0c0,.07.06.08.06.08l.34.11A75.6,75.6,0,0,1,1042.32,313.24Z" transform="translate(-611.02 -271.67)"/><path class="cls-1" d="M1042.31,314.45c0,2,0,5.17-.16,8.05-4.67-4.49-15.68-9.23-15.68-9.23a49.43,49.43,0,0,0-13.85,5.63l.27-4.53a51.33,51.33,0,0,1,16.22-7.12A84.73,84.73,0,0,1,1042.31,314.45Z" transform="translate(-611.02 -271.67)"/><path class="cls-1" d="M1042.15,322.5a32.16,32.16,0,0,1-.6,6.52s-14.46,7.34-16.44,7.67c0,0-7.95-4.44-13.07-8l.58-9.78a49.43,49.43,0,0,1,13.85-5.63S1037.48,318,1042.15,322.5Z" transform="translate(-611.02 -271.67)"/><path class="cls-1" d="M1031,304.23a53.75,53.75,0,0,1,8.77,5.5,40.51,40.51,0,0,0-8.58-3.92s-.17-.05-.22-.95Q1031,304.58,1031,304.23Z" transform="translate(-611.02 -271.67)"/><path class="cls-1" d="M1032.52,297.89c0,.43-.09.82-.13,1.18l-.75-.19c-.37,2.44-.56,4.15-.64,5.35l0,0a40.18,40.18,0,0,1,.51-5.38c0-.37.1-.75.17-1.15Z" transform="translate(-611.02 -271.67)"/><path class="cls-1" d="M1030.66,298.7l.81.12a40.18,40.18,0,0,0-.51,5.38l-1.51-.76A18.93,18.93,0,0,1,1030.66,298.7Z" transform="translate(-611.02 -271.67)"/><path class="cls-1" d="M1031,304.2c0,.26,0,.47,0,.66a4.75,4.75,0,0,0,.16,2.08c-1.15-.53-1.9-.86-2-.9,0-.34.14-1.37.33-2.6Z" transform="translate(-611.02 -271.67)"/><path class="cls-1" d="M1030.22,298.62l.44.08a18.93,18.93,0,0,0-1.21,4.74l-.16-.08A30.93,30.93,0,0,1,1030.22,298.62Z" transform="translate(-611.02 -271.67)"/><path class="cls-1" d="M1030.66,297.49a8.35,8.35,0,0,0-.44,1.13,33.34,33.34,0,0,0-3.45-.37,5.43,5.43,0,0,1,.32-.76,29,29,0,0,0-4.58-.48A35.89,35.89,0,0,1,1030.66,297.49Z" transform="translate(-611.02 -271.67)"/><path class="cls-1" d="M1030.22,298.62a30.93,30.93,0,0,0-.93,4.74c-1.41-.7-2.6-1.25-3.34-1.59a22.16,22.16,0,0,1,.82-3.52A33.34,33.34,0,0,1,1030.22,298.62Z" transform="translate(-611.02 -271.67)"/><path class="cls-1" d="M1029.29,303.36l.16.08c-.19,1.23-.29,2.26-.33,2.6a0,0,0,0,1,0,0l-1.17.28c-7.61,1.21-16,6.86-16,6.86a12.61,12.61,0,0,0-3.23-1.08l0-.38,1-.6a10.46,10.46,0,0,1,2.24.84,52.81,52.81,0,0,1,13.79-6.39,21.87,21.87,0,0,1,3.41-.62S1029.17,304.29,1029.29,303.36Z" transform="translate(-611.02 -271.67)"/><path class="cls-1" d="M1029.29,303.36c-.12.93-.18,1.58-.18,1.58a21.87,21.87,0,0,0-3.41.62l-.16-.62s.13-1.47.41-3.17C1026.69,302.11,1027.88,302.66,1029.29,303.36Z" transform="translate(-611.02 -271.67)"/><path class="cls-1" d="M1029.11,346v1.53a16.08,16.08,0,0,1-2.64,1v-2A9,9,0,0,0,1029.11,346Z" transform="translate(-611.02 -271.67)"/><path class="cls-1" d="M1027.09,297.49a5.43,5.43,0,0,0-.32.76,48.12,48.12,0,0,0-28.56,7.68s-.07,1.33-.09,2.7c0-1.68.09-3.91.09-3.91a48.25,48.25,0,0,1,24.3-7.71A29,29,0,0,1,1027.09,297.49Z" transform="translate(-611.02 -271.67)"/><path class="cls-1" d="M1026.77,298.25a22.16,22.16,0,0,0-.82,3.52l-.84-.37a51.23,51.23,0,0,0-16.22,7.13l-.14,2.36a50.33,50.33,0,0,0-10.54-.8,9.43,9.43,0,0,1-.09-1.46c0-1.37.09-2.7.09-2.7A48.12,48.12,0,0,1,1026.77,298.25Z" transform="translate(-611.02 -271.67)"/><path class="cls-1" d="M1026,301.77c-.28,1.7-.41,3.17-.41,3.17-6.09.59-13,4.44-15.87,6.17-.3-.08-.6-.16-.92-.22l.14-2.36a51.23,51.23,0,0,1,16.22-7.13Z" transform="translate(-611.02 -271.67)"/><path class="cls-1" d="M1025.54,304.94l.16.62a52.81,52.81,0,0,0-13.79,6.39,10.46,10.46,0,0,0-2.24-.84C1012.52,309.38,1019.45,305.53,1025.54,304.94Z" transform="translate(-611.02 -271.67)"/><path class="cls-1" d="M994.63,304.72a48.09,48.09,0,0,1,27.88-7.71,48.25,48.25,0,0,0-24.3,7.71s-.12,2.23-.09,3.91c0,.51,0,1,0,1.48-.57,0-1.09,0-1.55,0v-4s-.79.57-2,1.67C994.55,306.22,994.63,304.72,994.63,304.72Z" transform="translate(-611.02 -271.67)"/><path class="cls-1" d="M1027.94,306.31a52.08,52.08,0,0,0-15.05,6.85l-.34,5.79c-.71.41-1.27.76-1.66,1l.52-6a21.7,21.7,0,0,0-2.78-1l0-.88a12.61,12.61,0,0,1,3.23,1.08S1020.33,307.52,1027.94,306.31Z" transform="translate(-611.02 -271.67)"/><path class="cls-1" d="M1012.62,318.9l-.58,9.78-.07-.05.58-9.68Z" transform="translate(-611.02 -271.67)"/><path class="cls-1" d="M1012.55,319l-.58,9.68c-.62-.44-1.2-.86-1.71-1.26l.63-7.41C1011.28,319.71,1011.84,319.36,1012.55,319Z" transform="translate(-611.02 -271.67)"/><path class="cls-1" d="M1011.41,313.93l-.52,6-.64.43,0,.41.11-6.11q-.89-.37-1.77-.66l.06-1.06A21.7,21.7,0,0,1,1011.41,313.93Z" transform="translate(-611.02 -271.67)"/><path class="cls-1" d="M1010.89,320l-.63,7.41-.15-.11.12-6.46,0-.41Z" transform="translate(-611.02 -271.67)"/><path class="cls-1" d="M1010.34,314.69l-.11,6.11-.38,6.26a7.45,7.45,0,0,1-1.94-2l.66-11Q1009.46,314.32,1010.34,314.69Z" transform="translate(-611.02 -271.67)"/><path class="cls-1" d="M1010.26,327.37l-.19,2.13,0-2.24Z" transform="translate(-611.02 -271.67)"/><path class="cls-1" d="M1009.85,327.06l.38-6.26-.12,6.46Z" transform="translate(-611.02 -271.67)"/><path class="cls-1" d="M1010.11,327.26l0,2.24,0,.31-.37.21.17-3Z" transform="translate(-611.02 -271.67)"/><polygon class="cls-1" points="399.03 58.15 399.06 57.83 399.03 59.36 398.58 59.6 398.66 58.35 399.03 58.15"/><path class="cls-1" d="M1009.85,327.06l-.17,3-14.54,8s-.26-.15-.69-.44l10.17-5.61.77-16.22a25.51,25.51,0,0,0-9.21-1.82c.34-.27.68-.53,1-.77a28,28,0,0,1,11.35.86l-.66,11A7.45,7.45,0,0,0,1009.85,327.06Z" transform="translate(-611.02 -271.67)"/><path class="cls-1" d="M995.14,338l14.54-8-.08,1.25-14.46,8a17.69,17.69,0,0,1-1.64-1.14l1-.52C994.88,337.88,995.14,338,995.14,338Z" transform="translate(-611.02 -271.67)"/><path class="cls-1" d="M1008.75,310.89c.32.06.62.14.92.22l-1,.6Z" transform="translate(-611.02 -271.67)"/><path class="cls-1" d="M1008.75,310.89l0,.82-.37.24c-2.53-1.34-7.05-1.73-10.21-1.84,0-.46,0-1,0-1.48a9.43,9.43,0,0,0,.09,1.46A50.33,50.33,0,0,1,1008.75,310.89Z" transform="translate(-611.02 -271.67)"/><path class="cls-1" d="M1008.7,311.71l0,.38a51,51,0,0,0-10.47-.79,8.65,8.65,0,0,1-.09-1.19c3.16.11,7.68.5,10.21,1.84Z" transform="translate(-611.02 -271.67)"/><path class="cls-1" d="M1008.68,312.09l0,.88a38.27,38.27,0,0,0-11.41-1,15.78,15.78,0,0,0-2.36,2l-1.4.05a12.63,12.63,0,0,1,3.11-2.57v-1.34c.46,0,1,0,1.55,0a8.65,8.65,0,0,0,.09,1.19A51,51,0,0,1,1008.68,312.09Z" transform="translate(-611.02 -271.67)"/><path class="cls-1" d="M1008.63,313l-.06,1.06a28,28,0,0,0-11.35-.86c-.36.24-.7.5-1,.77h-1.32a15.78,15.78,0,0,1,2.36-2A38.27,38.27,0,0,1,1008.63,313Z" transform="translate(-611.02 -271.67)"/><path class="cls-1" d="M1005.39,315.76l-.77,16.22-10.17,5.61c-1.7-1.16-6.06-4.5-7.26-8.93.7-2.12,3.7-10.39,9-14.72A25.51,25.51,0,0,1,1005.39,315.76Z" transform="translate(-611.02 -271.67)"/><path class="cls-1" d="M996.57,310.2v1.21a12.63,12.63,0,0,0-3.11,2.57c-.46,0-.83,0-1.11.08A14.87,14.87,0,0,1,996.57,310.2Z" transform="translate(-611.02 -271.67)"/><path class="cls-1" d="M996.57,310.07v.13a14.87,14.87,0,0,0-4.22,3.86l-.55.05c-5.76,3.9-9.08,12.69-10,15.27l-1.73,1.23c3.26-10.86,10.81-18.52,14.44-21.7a10.94,10.94,0,0,0,.08,1.18S995.39,310.06,996.57,310.07Z" transform="translate(-611.02 -271.67)"/><path class="cls-1" d="M996.57,307.25v2.82c-1.18,0-1.94,0-1.94,0a10.94,10.94,0,0,1-.08-1.18C995.79,307.82,996.57,307.25,996.57,307.25Z" transform="translate(-611.02 -271.67)"/><path class="cls-1" d="M996.57,306v1.22s-.78.57-2,1.66c0-.38,0-.8,0-1.21C995.78,306.6,996.57,306,996.57,306Z" transform="translate(-611.02 -271.67)"/><path class="cls-1" d="M994.86,313.93h1.32c-5.29,4.33-8.29,12.6-9,14.72-.06-.23-.12-.47-.16-.71C987,328,989.64,319.2,994.86,313.93Z" transform="translate(-611.02 -271.67)"/><path class="cls-1" d="M994.54,307.7c0,.41,0,.83,0,1.21-3.63,3.18-11.18,10.84-14.44,21.7l-.42.3C982.66,319.26,990.74,311,994.54,307.7Z" transform="translate(-611.02 -271.67)"/><path class="cls-1" d="M994.45,337.59l-1,.52c-2.15-1.62-5.71-4.86-6.47-8.94,0,0,.05-.19.16-.51C988.39,333.09,992.75,336.43,994.45,337.59Z" transform="translate(-611.02 -271.67)"/><path class="cls-1" d="M993.46,314l1.4-.05c-5.22,5.27-7.83,14-7.83,14,0,.24.1.48.16.71-.11.32-.16.51-.16.51.76,4.08,4.32,7.32,6.47,8.94l-3.78,2.09s-6.57-3.9-8-9.52L985,328.4S988.75,319.09,993.46,314Z" transform="translate(-611.02 -271.67)"/><path class="cls-1" d="M992.35,314.06c.28,0,.65-.06,1.11-.08-4.71,5.11-8.51,14.42-8.51,14.42l-3.22,2.28c0-.19-.09-.38-.12-.57l.23-.73,3.11-2.2S988.17,319.3,992.35,314.06Z" transform="translate(-611.02 -271.67)"/><path class="cls-1" d="M991.8,314.11l.55-.05c-4.18,5.24-7.4,13.12-7.4,13.12l-3.11,2.2C982.72,326.8,986,318,991.8,314.11Z" transform="translate(-611.02 -271.67)"/><polygon class="cls-1" points="433.11 89.64 423.76 99.31 398.4 116.83 433.11 89.64"/><polygon class="cls-1" points="431.87 69.34 422.53 79.01 397.17 96.53 431.87 69.34"/><polygon class="cls-1" points="427.34 45.65 417.99 55.32 392.63 72.84 427.34 45.65"/><polygon class="cls-1" points="422.99 109.18 406.33 126.41 361.14 157.63 422.99 109.18"/><polygon class="cls-1" points="409.98 97.74 406.33 106.29 364 136.38 409.98 97.74"/><polygon class="cls-1" points="409.98 97.74 364 136.38 334.5 153.47 386.99 110.72 397.91 104.55 372.7 124.31 398.06 106.79 402.98 101.7 409.98 97.74"/><polygon class="cls-1" points="408.05 82.93 357.34 128.87 322.3 150.01 408.05 82.93"/><polygon class="cls-1" points="407.4 97.12 402.98 101.7 397.91 104.55 407.4 97.12"/><polygon class="cls-1" points="406.33 106.29 310.4 184.27 364 136.38 406.33 106.29"/><polygon class="cls-1" points="404.59 73.06 367.17 108.25 358.58 113.61 365.73 106.22 347.32 120.63 326.87 133.4 404.59 73.06"/><polygon class="cls-1" points="404.59 73.06 326.87 133.4 326.86 133.4 275.2 173.5 349.73 109.08 352.48 107.27 346.64 111.84 368.27 96.91 404.59 73.06"/><polygon class="cls-1" points="402.98 101.7 398.06 106.79 372.7 124.31 397.91 104.55 402.98 101.7"/><path class="cls-1" d="M1009.19,337.59l-72.55,55.87L963.48,365l16.21-10.44,4.52-11.51Zm-21.5,14.81,9.35-9.67-34.7,27.19Z" transform="translate(-611.02 -271.67)"/><polygon class="cls-1" points="389 50.14 379.65 59.81 354.29 77.33 389 50.14"/><polygon class="cls-1" points="386.02 71.06 376.67 80.74 351.32 98.25 386.02 71.06"/><polygon class="cls-1" points="381.35 84.66 372.01 94.33 368.27 96.91 352.48 107.27 381.35 84.66"/><polygon class="cls-1" points="380.59 34.36 370.59 45.55 333.87 71.43 380.59 34.36"/><polygon class="cls-1" points="373.19 71.43 368.67 82.93 352.46 93.37 373.19 71.43"/><polygon class="cls-1" points="373.19 71.43 352.46 93.37 305.01 123.94 373.19 71.43"/><polygon class="cls-1" points="368.27 96.91 346.64 111.84 352.48 107.27 368.27 96.91"/><polygon class="cls-1" points="365.73 106.22 358.58 113.61 347.32 120.63 365.73 106.22"/><polygon class="cls-1" points="364 65.02 280.59 130.14 328.8 86.48 364 65.02"/><polygon class="cls-1" points="347.32 120.63 358.58 113.61 356.38 115.88 331.02 133.4 347.32 120.63"/><polygon class="cls-1" points="344.22 81.5 334.87 91.17 309.51 108.69 344.22 81.5"/><path class="cls-1" d="M704.64,338.27q13.71,8.85,9.86,24.28a29.17,29.17,0,0,1-6.07,12.23,34.9,34.9,0,0,1-10.09,8.13,46.27,46.27,0,0,1-12.55,4.49,67.55,67.55,0,0,1-13.53,1.39,61.79,61.79,0,0,1-6.89-.41,50.19,50.19,0,0,1-7.14-1.36,38.14,38.14,0,0,1-6.77-2.53,26.23,26.23,0,0,1-5.81-3.86,4.29,4.29,0,0,0-1.9-.38,14.41,14.41,0,0,0-3.92.66,42.88,42.88,0,0,0-4.84,1.78c-1.71.73-3.49,1.57-5.34,2.49s-3.65,1.9-5.37,2.91q-6.21,3.42-13,7.78l52.36-38.38q-1.71,7.14,1.13,10.37t11.57,3.35a21.73,21.73,0,0,0,4.49-.47,16.33,16.33,0,0,0,4.14-1.49,11.11,11.11,0,0,0,3.35-2.66,9.32,9.32,0,0,0,2-4q1.14-4.56-1.52-7.08T677.89,350c-.93-.3-1.81-.61-2.65-1l20.61-15.18q2.65,1.08,4.83,2.18A44.37,44.37,0,0,1,704.64,338.27Zm-35.22,10.49-30,22.07a27.06,27.06,0,0,1,.12-13.72l.13-.44h7v-.07a34.82,34.82,0,0,0,7.33-.94,48.1,48.1,0,0,0,7.46-2.31A34.19,34.19,0,0,0,669.42,348.76Zm-4.87-4.42q-16.81-9-12.9-24.72A26.49,26.49,0,0,1,658,307.7a39,39,0,0,1,10.75-8.13,52.43,52.43,0,0,1,13.12-4.64,64.68,64.68,0,0,1,13.44-1.49,52.85,52.85,0,0,1,8.34.67,35.55,35.55,0,0,1,8.07,2.24,25.16,25.16,0,0,1,6.92,4.27,19.31,19.31,0,0,1,4.93,6.73,4,4,0,0,1,.32.66c.08.24.14.46.19.67l-28,20.61a14.18,14.18,0,0,0,2.68-3.1,12.4,12.4,0,0,0,1.43-3.1l.19-.75c.92-3.55.5-6.24-1.27-8.1s-4.64-2.91-8.47-2.91a23.26,23.26,0,0,0-4.55.48,17.57,17.57,0,0,0-4.52,1.52,12.68,12.68,0,0,0-3.7,2.71,9.33,9.33,0,0,0-2.22,4.08q-.75,3.17,2.15,5.76,3.22,2.78,12.14,5.75L691,332a9,9,0,0,1,.91.35l-20.61,15.11c-1.31-.51-2.51-1-3.6-1.55S665.52,344.84,664.55,344.34Zm46-21.25,28-20.54-1.68,1.89L734,307.7c-1.05,1.2-2.11,2.44-3.16,3.73s-1.9,2.37-2.53,3.26a24.23,24.23,0,0,0-1.74,2.93c-.48,1-.87,1.89-1.17,2.69a26.79,26.79,0,0,0-.82,2.72h-.25v.06Z" transform="translate(-611.02 -271.67)"/><path class="cls-1" d="M833.05,300.08l-.06.19,27.69-20.36a142,142,0,0,0-13.28,11.82q-3.66,3.67-6.1,6.52c-1.62,1.89-3.24,4-4.84,6.19s-3.12,4.6-4.55,7.08a52.36,52.36,0,0,0-3.6,7.59l-16.95,68.66h-24l9.42-38.25h-28a17,17,0,0,0-1.84,1.24,18.78,18.78,0,0,0-1.77,1.54,14.74,14.74,0,0,0-1.45,1.68,9,9,0,0,0-1,1.55l-8,32.24h-18.9A67,67,0,0,0,723,389.48a106.16,106.16,0,0,0-11.06,3.19,81.89,81.89,0,0,0-8.1,3.29l-4,1.93,90.67-66.58h10.69l2.4-9.61Zm.82-5.06L735.68,367.1,753.57,295h24.16l-9,36.29h10.49a10.53,10.53,0,0,0,3.39-1.17,33.81,33.81,0,0,0,4-2.43q2.08-1.45,4.24-3.19t4-3.45c1.27-1.14,2.39-2.21,3.39-3.22a28.7,28.7,0,0,0,2.3-2.6q1.65-2.52,3.16-5.21c1-1.79,1.94-3.56,2.79-5.31s1.57-3.43,2.18-5a33.09,33.09,0,0,0,1.36-4.36l.06.06.06-.38Z" transform="translate(-611.02 -271.67)"/><path class="cls-1" d="M820.59,388.34l137.52-101q-7.27,6.19-12.9,12c-2.27,2.24-4.06,4.12-5.34,5.66a55.59,55.59,0,0,0-3.51,4.65,26.81,26.81,0,0,0-2.5,4.52,7.7,7.7,0,0,0-.72,3.83q1.7,9.29-1.14,20.73L931,343a67.58,67.58,0,0,1-7.18,17.89,59,59,0,0,1-11.7,14.51,52.87,52.87,0,0,1-15.58,9.71,49.66,49.66,0,0,1-18.84,3.54,44.5,44.5,0,0,1-13.41-2,28.23,28.23,0,0,1-11.5-7,6.9,6.9,0,0,0-4.94-1.58,20.16,20.16,0,0,0-4,.44,43.43,43.43,0,0,0-4.39,1.17c-1.5.49-3,1-4.52,1.64s-3,1.24-4.43,1.87C827.27,384.68,824,386.41,820.59,388.34ZM870,347.56l-24.47,18q-2.09-9.48.57-21.37L847.4,339a67.17,67.17,0,0,1,7.18-18,58.83,58.83,0,0,1,11.73-14.51,53.14,53.14,0,0,1,15.64-9.7,49.91,49.91,0,0,1,18.88-3.55,47.55,47.55,0,0,1,7.74.64,32.86,32.86,0,0,1,7.27,2.05,31.9,31.9,0,0,1,6.52,3.64,25.17,25.17,0,0,1,5.47,5.44l-32.12,23.58c.76-.68,1.77-1.63,3-2.88a41,41,0,0,0,3.57-4,18.87,18.87,0,0,0,2.56-4.14,3.14,3.14,0,0,0-.06-3.29,10,10,0,0,0-3.67-2,16,16,0,0,0-4.55-.6,18.51,18.51,0,0,0-9.17,2.18,23,23,0,0,0-6.76,5.69,34.5,34.5,0,0,0-4.78,7.9,69.79,69.79,0,0,0-3.19,8.82L871,343.14c-.21.76-.39,1.5-.53,2.24S870.14,346.85,870,347.56ZM907.4,339q.63-2.65,1.05-5c.27-1.56.47-3.06.6-4.49a1.44,1.44,0,0,0-1.65-1.26,4.74,4.74,0,0,0-1.77.41,8.77,8.77,0,0,0-2,1.17c-.63.46-1.76,1.3-3.38,2.53l-5.57,4.2c-2.08,1.58-4.3,3.25-6.64,5s-4.51,3.4-6.51,4.94l-5.18,4c-1.46,1.12-2.37,1.84-2.75,2.18a37.53,37.53,0,0,0-3,3,3.8,3.8,0,0,0-1.07,3.32q.31,5.56,3.44,8.54t9,3a17.16,17.16,0,0,0,9.48-2.59,26.57,26.57,0,0,0,7-6.58,38.35,38.35,0,0,0,4.9-8.79,73,73,0,0,0,3.07-9.29Z" transform="translate(-611.02 -271.67)"/><path class="cls-1" d="M1113,294.45l-43.37,31.87c.38-.38,1.23-1.31,2.56-2.78s2.81-3.16,4.46-5.06,3.29-3.84,4.93-5.82,3-3.69,3.92-5.12a31.33,31.33,0,0,0,2-3.32c.59-1.12,1.11-2.18,1.55-3.19s.81-1.95,1.11-2.82a21.59,21.59,0,0,0,.63-2.18l.44-1.58Zm19.73,0h39.33l-4.49,18.21H1139l-7.08,28.64-39.27,28.83a69.67,69.67,0,0,0,5.25-5.56c1-1.09,1.75-2,2.34-2.84s1.17-1.65,1.74-2.53a30.53,30.53,0,0,0,1.55-2.69,14.91,14.91,0,0,0,1.07-2.69l10.18-41.16h-20.54l55.25-40.59q-6.32,5.69-10.68,10.37-2.65,2.78-4,4.49a21.77,21.77,0,0,0-2.18,3.26,7.25,7.25,0,0,0-.91,2.71A1.36,1.36,0,0,0,1132.72,294.45Zm-32,75.05,44.7-32.88-5.76,6.39-2.65,3.07c-.72.82-1.43,1.66-2.15,2.53s-1.4,1.7-2.06,2.52-1.21,1.58-1.67,2.25a27.87,27.87,0,0,0-3,5.41c-.74,1.79-1.28,3.23-1.62,4.33l-6,24.21H1096.3Z" transform="translate(-611.02 -271.67)"/><path class="cls-1" d="M651.72,407.12l-13.23,9.73.78-.85,1.36-1.55c.5-.57,1-1.17,1.5-1.77s.9-1.13,1.2-1.56a9.81,9.81,0,0,0,.61-1c.18-.34.34-.66.48-1s.24-.59.33-.86a6.37,6.37,0,0,0,.2-.66l.13-.49Zm6,0h12l-1.37,5.56h-8.72l-2.16,8.74-12,8.79a23.06,23.06,0,0,0,1.6-1.7c.29-.33.53-.62.71-.86s.36-.5.53-.77a8.58,8.58,0,0,0,.47-.82,4.26,4.26,0,0,0,.33-.82l3.11-12.56H646l16.86-12.38c-1.29,1.15-2.38,2.21-3.26,3.16-.54.57-1,1-1.23,1.37a6.07,6.07,0,0,0-.66,1,2.19,2.19,0,0,0-.28.83A.41.41,0,0,0,657.73,407.12ZM648,430l13.63-10-1.75,1.95-.81.93-.66.77-.63.78c-.2.25-.37.48-.51.68a8.47,8.47,0,0,0-.91,1.65c-.23.55-.39,1-.5,1.32L654,435.46h-7.39Z" transform="translate(-611.02 -271.67)"/><path class="cls-1" d="M658.68,435.77l42-30.81c-1.48,1.26-2.79,2.49-3.93,3.67a22.78,22.78,0,0,0-1.63,1.73,15,15,0,0,0-1.07,1.41,8.1,8.1,0,0,0-.77,1.38,2.43,2.43,0,0,0-.22,1.17,15.08,15.08,0,0,1-.34,6.33l-.31,1.29a21,21,0,0,1-2.19,5.46,18.42,18.42,0,0,1-3.57,4.42,16,16,0,0,1-4.76,3,15.11,15.11,0,0,1-5.74,1.08,13.59,13.59,0,0,1-4.09-.61,8.79,8.79,0,0,1-3.51-2.14,2.08,2.08,0,0,0-1.51-.49,6,6,0,0,0-1.21.14,11.6,11.6,0,0,0-1.34.36c-.46.14-.92.31-1.38.5s-.92.37-1.35.57C660.72,434.65,659.71,435.18,658.68,435.77Zm15.06-12.44-7.46,5.49a15,15,0,0,1,.17-6.52l.41-1.58a20.08,20.08,0,0,1,2.19-5.47,17.82,17.82,0,0,1,3.57-4.43,16.24,16.24,0,0,1,4.78-3,15.22,15.22,0,0,1,5.76-1.08,14.36,14.36,0,0,1,2.36.19,10.13,10.13,0,0,1,2.22.63,9.65,9.65,0,0,1,2,1.11,7.51,7.51,0,0,1,1.67,1.66l-9.8,7.19c.24-.21.54-.5.93-.88a12.53,12.53,0,0,0,1.09-1.21,5.66,5.66,0,0,0,.78-1.27,1,1,0,0,0,0-1,3.22,3.22,0,0,0-1.12-.61,4.93,4.93,0,0,0-1.39-.18,5.57,5.57,0,0,0-2.79.67,7,7,0,0,0-2.07,1.73,10.36,10.36,0,0,0-1.45,2.41,20.79,20.79,0,0,0-1,2.69l-.52,2.07c-.06.23-.12.46-.16.68Zm11.42-2.63c.13-.54.24-1,.32-1.52s.14-.93.18-1.37a.44.44,0,0,0-.5-.39,1.61,1.61,0,0,0-.54.13,2.68,2.68,0,0,0-.62.36l-1,.77L681.28,420l-2,1.52-2,1.51-1.58,1.21c-.44.34-.72.57-.84.67a11.41,11.41,0,0,0-.92.92,1.12,1.12,0,0,0-.33,1,3.68,3.68,0,0,0,1,2.6,3.8,3.8,0,0,0,2.73.91,5.28,5.28,0,0,0,2.89-.79,8,8,0,0,0,2.14-2,11.48,11.48,0,0,0,1.5-2.68,22.73,22.73,0,0,0,.93-2.83Z" transform="translate(-611.02 -271.67)"/><path class="cls-1" d="M726.4,420.49a6.31,6.31,0,0,1,3,7.41,9,9,0,0,1-1.85,3.73,10.69,10.69,0,0,1-3.08,2.48,14,14,0,0,1-3.83,1.37,20.6,20.6,0,0,1-4.13.42,19.58,19.58,0,0,1-2.1-.12,16.43,16.43,0,0,1-2.18-.42,11,11,0,0,1-2.06-.77,7.76,7.76,0,0,1-1.78-1.18,1.35,1.35,0,0,0-.57-.11,4.53,4.53,0,0,0-1.2.2,15.14,15.14,0,0,0-1.48.54c-.52.23-1.06.48-1.63.76s-1.11.58-1.64.89c-1.26.69-2.57,1.48-4,2.37l16-11.71c-.35,1.46-.23,2.51.35,3.17s1.78,1,3.53,1a7,7,0,0,0,1.37-.14,4.86,4.86,0,0,0,1.26-.46,3.32,3.32,0,0,0,1-.81,2.85,2.85,0,0,0,.61-1.23,2.08,2.08,0,0,0-.46-2.16,10,10,0,0,0-3.34-1.68c-.28-.09-.55-.19-.81-.29l6.29-4.63c.54.22,1,.44,1.47.67A12.15,12.15,0,0,1,726.4,420.49Zm-10.74,3.2-9.16,6.73a8.23,8.23,0,0,1,0-4.18l0-.14h2.14v0a9.91,9.91,0,0,0,2.24-.29,13.64,13.64,0,0,0,2.28-.7A10.56,10.56,0,0,0,715.66,423.69Zm-1.49-1.35q-5.13-2.73-3.93-7.54a8,8,0,0,1,1.93-3.63,11.74,11.74,0,0,1,3.27-2.48,15.67,15.67,0,0,1,4-1.42,19.76,19.76,0,0,1,4.09-.45,15.83,15.83,0,0,1,2.55.2,10.66,10.66,0,0,1,2.46.68,7.54,7.54,0,0,1,2.11,1.31,6,6,0,0,1,1.51,2.05.72.72,0,0,1,.09.2.89.89,0,0,1,.06.2l-8.54,6.29a4.64,4.64,0,0,0,.82-.94,3.78,3.78,0,0,0,.43-.95l.06-.23a2.48,2.48,0,0,0-.39-2.47,3.37,3.37,0,0,0-2.58-.89,6.94,6.94,0,0,0-1.39.15,5.74,5.74,0,0,0-1.38.46,3.89,3.89,0,0,0-1.13.83,2.76,2.76,0,0,0-.67,1.25,1.7,1.7,0,0,0,.65,1.75,11.82,11.82,0,0,0,3.71,1.76l.31.1.28.11-6.28,4.61c-.4-.16-.77-.31-1.1-.47Zm14-6.48,8.55-6.27-.51.58-.88,1c-.32.36-.64.74-1,1.13s-.57.73-.77,1a7.45,7.45,0,0,0-.53.89c-.14.31-.26.58-.35.82a6,6,0,0,0-.25.83h-.08v0Z" transform="translate(-611.02 -271.67)"/><path class="cls-1" d="M743.05,420.49l-13.41,9.86a15.83,15.83,0,0,0,1.55-1.64,25.17,25.17,0,0,0,1.62-2.18c.52-.79,1-1.6,1.45-2.44a14.54,14.54,0,0,0,1-2.44l.25-1a21.16,21.16,0,0,1,2.11-5.36,17.85,17.85,0,0,1,3.41-4.36,15.53,15.53,0,0,1,4.57-2.93,14.49,14.49,0,0,1,5.61-1.07,18.19,18.19,0,0,1,2,.1,11,11,0,0,1,1.92.35,10.59,10.59,0,0,1,1.81.66,8,8,0,0,1,1.65,1.05l-10.39,7.64.58-.55c.26-.24.52-.5.8-.78s.54-.58.8-.89a5.31,5.31,0,0,0,.59-.86,1.49,1.49,0,0,0,.21-.68c0-.19-.14-.32-.4-.39l-.39,0H750a5.21,5.21,0,0,0-2.77.7,6.72,6.72,0,0,0-1.94,1.82,11.13,11.13,0,0,0-1.29,2.5c-.33.92-.62,1.82-.85,2.71Zm-8.45,7.56,8-5.9A21.8,21.8,0,0,0,742,426a6.38,6.38,0,0,0,.22,2.54,2.24,2.24,0,0,0,.55.88,2.6,2.6,0,0,0,.8.55,3.25,3.25,0,0,0,1,.28,7.4,7.4,0,0,0,1,.08h.34l.39,0,.32,0h.19a9.5,9.5,0,0,0,1.14-.19,4.82,4.82,0,0,0,1.51-.65A6.84,6.84,0,0,0,751,428a8.45,8.45,0,0,0,1.37-2.59h1a4,4,0,0,0,.83-.08,7.07,7.07,0,0,0,.82-.17,3.67,3.67,0,0,0,.88-.37c.3-.15.58-.31.86-.48l.74-.46.72-.48-16.79,12.3a7.95,7.95,0,0,1-6.84-7.58Zm4.53,10.69L762,421.9l-.49.54-.79.9c-.29.32-.58.66-.87,1a10.24,10.24,0,0,0-.68.88,4.66,4.66,0,0,0-.26.5l-.24.52a12.81,12.81,0,0,1-2,3.88,13.65,13.65,0,0,1-3,2.9,14.86,14.86,0,0,1-3.72,1.91,17.45,17.45,0,0,1-4.21.9,14.89,14.89,0,0,0-2.29.75q-1.18.48-2.16,1C740.61,437.91,739.86,438.31,739.13,438.74Zm29.24-35.51q-2.11,1.81-3.78,3.51c-.67.65-1.2,1.21-1.59,1.67a17.19,17.19,0,0,0-1.08,1.38,8.53,8.53,0,0,0-.81,1.36,2.83,2.83,0,0,0-.32,1.18c0,.11.05.2.08.29a2.76,2.76,0,0,0,.08.27,10.9,10.9,0,0,1,.09,4.25l0,.15h-7.35a9.73,9.73,0,0,0,.23-1.85,3.33,3.33,0,0,0-.25-1.41Z" transform="translate(-611.02 -271.67)"/><path class="cls-1" d="M757.43,435.77l42-30.81c-1.48,1.26-2.79,2.49-3.94,3.67-.69.68-1.24,1.26-1.63,1.73a16.9,16.9,0,0,0-1.07,1.41,8,8,0,0,0-.76,1.38,2.32,2.32,0,0,0-.22,1.17,15.1,15.1,0,0,1-.35,6.33l-.31,1.29a20.28,20.28,0,0,1-2.19,5.46,18,18,0,0,1-3.57,4.42,16,16,0,0,1-4.75,3,15.13,15.13,0,0,1-5.75,1.08,13.64,13.64,0,0,1-4.09-.61,8.79,8.79,0,0,1-3.51-2.14,2,2,0,0,0-1.5-.49,6.09,6.09,0,0,0-1.22.14,12.17,12.17,0,0,0-1.34.36c-.45.14-.91.31-1.38.5s-.91.37-1.35.57C759.47,434.65,758.46,435.18,757.43,435.77Zm15.07-12.44L765,428.82a15.11,15.11,0,0,1,.18-6.52l.4-1.58a20.74,20.74,0,0,1,2.19-5.47,18.08,18.08,0,0,1,3.58-4.43,16.06,16.06,0,0,1,4.77-3,15.22,15.22,0,0,1,5.76-1.08,14.18,14.18,0,0,1,2.36.19,10.13,10.13,0,0,1,2.22.63,10,10,0,0,1,2,1.11,7.72,7.72,0,0,1,1.67,1.66l-9.8,7.19c.23-.21.54-.5.92-.88a12.53,12.53,0,0,0,1.09-1.21,5.72,5.72,0,0,0,.79-1.27,1,1,0,0,0,0-1,3.31,3.31,0,0,0-1.12-.61,5,5,0,0,0-1.39-.18,5.61,5.61,0,0,0-2.8.67,7,7,0,0,0-2.06,1.73,10.39,10.39,0,0,0-1.46,2.41,20.72,20.72,0,0,0-1,2.69l-.52,2.07c-.07.23-.12.46-.17.68S772.55,423.11,772.5,423.33Zm11.42-2.63c.12-.54.23-1,.32-1.52s.14-.93.18-1.37a.44.44,0,0,0-.5-.39,1.51,1.51,0,0,0-.54.13,2.32,2.32,0,0,0-.62.36l-1,.77L780,420l-2,1.52L776,423l-1.58,1.21c-.45.34-.73.57-.84.67a11.56,11.56,0,0,0-.93.92,1.17,1.17,0,0,0-.33,1,3.4,3.4,0,0,0,3.78,3.51,5.34,5.34,0,0,0,2.9-.79,8.32,8.32,0,0,0,2.14-2,11.82,11.82,0,0,0,1.49-2.68,21.29,21.29,0,0,0,.94-2.83Z" transform="translate(-611.02 -271.67)"/><path class="cls-1" d="M790.78,441.32l11.89-8.75L802,435.5a16.34,16.34,0,0,0-3,1c-1,.44-2.21,1-3.56,1.77A45.74,45.74,0,0,0,790.78,441.32Zm30-31.9q2.45,2.28,1.4,6.42a11.18,11.18,0,0,1-2.45,4.89,12.5,12.5,0,0,1-4.53,3.12l2.1,7.23v0l1.3,4.42h-8.07l-2.68-9.86h-3.51l-.88,3.55a.5.5,0,0,0,.1.24c.06.09.18.13.38.13a2.12,2.12,0,0,0,.63-.13,9.45,9.45,0,0,0,1.06-.41l-.4.28c-.26.18-.59.43-1,.74l-1.42,1-1.63,1.18-4.4,3.24h-2.26l3.3-13.37a1.28,1.28,0,0,0-.16-.43c-.1-.18-.31-.26-.65-.26a2.58,2.58,0,0,0-.56.07,7.31,7.31,0,0,0-.77.27c-.58.26-1.12.51-1.63.76l-1.34.63c-.44.22-.84.43-1.21.64l7.23-5.3v0l15.37-11.29c.58,0,1.17.08,1.78.16a10.71,10.71,0,0,1,1.77.37,9.74,9.74,0,0,1,1.67.68A6.43,6.43,0,0,1,820.82,409.42Zm-2.15-6.92-19.5,14.31,2.4-9.65h6c.34,0,.72-.09,1.15-.16s.89-.17,1.37-.29,1-.28,1.49-.46a13.11,13.11,0,0,0,1.49-.67l1.59-.89,1.53-.84,1.36-.76Zm-3.93,13.86a3.1,3.1,0,0,0-.29-2.68,3,3,0,0,0-2.58-1h-4.29l-1.81,7.33H810a4.9,4.9,0,0,0,3.09-.94A4.8,4.8,0,0,0,814.74,416.36Z" transform="translate(-611.02 -271.67)"/><path class="cls-1" d="M818.92,429.67l35.67-26.21a26.27,26.27,0,0,0-2,2.37c-.38.49-.7.92-1,1.3s-.52.8-.77,1.24-.51.91-.75,1.4-.44,1-.62,1.5l-.41,1.64h-5.3l-.12,0h0a3.6,3.6,0,0,0-.7.09,2.49,2.49,0,0,0-1,.55c-.29.2-.69.5-1.23.9L839,415.72l-1.54,1.19c-.47.37-.79.62-1,.77l-.25.18a2.08,2.08,0,0,0-.21.21.32.32,0,0,0-.09.2c0,.07,0,.11.12.14h9.55l-1.31,5.34h-11L831.83,430h10.3l-12.33,9c.11-.09.27-.24.49-.45s.47-.43.72-.68.5-.51.74-.78a5.77,5.77,0,0,0,.6-.75,1.24,1.24,0,0,0,.25-.57q0-.22-.27-.27h-9.22c.35-1.4.66-2.64.93-3.74q.24-1,.39-1.59c.1-.39.19-.75.26-1.07s.14-.59.19-.81.09-.33.1-.35a.41.41,0,0,0-.08-.41.62.62,0,0,0-.42-.13,3.11,3.11,0,0,0-.67.1c-.25.06-.52.15-.81.25s-.61.22-.92.35l-.94.4C820.44,428.89,819.7,429.26,818.92,429.67Zm16.3-13.34-9,6.59,3.84-15.54h17.3l-7.54,5.53h-3.78Zm-6.38,24.8,17.44-12.77a5.3,5.3,0,0,0-.62.79c-.21.31-.4.64-.58,1s-.34.69-.48,1a9,9,0,0,0-.33.94l-.87,3.47h-4.65a4.85,4.85,0,0,0-1,.29c-.42.17-.89.39-1.41.65s-1.05.56-1.62.89-1.12.66-1.68,1Q831.06,439.63,828.84,441.13Z" transform="translate(-611.02 -271.67)"/></svg>