<svg id="Layer_1" data-name="Layer 1" xmlns="http://www.w3.org/2000/svg" viewBox="0 0 611.22 162.44"><defs><style>.cls-1{fill:#f26322;}</style></defs><path class="cls-1" d="M255.43,243.52a21.89,21.89,0,0,1,9.68,8.6,26.22,26.22,0,0,1,3.52,13.95V301h-11.1V267.48q0-8.87-5.06-13.58t-13.81-4.7q-8.88,0-14.12,4.86t-5.25,14.18V301H208.07V221h11.22v29.21a21.53,21.53,0,0,1,9.19-7,33.28,33.28,0,0,1,13.14-2.49A32.41,32.41,0,0,1,255.43,243.52Z" transform="translate(-51.34 -220.37)"/><path class="cls-1" d="M208.07,336a28.44,28.44,0,0,1,11.66-10.66,37.24,37.24,0,0,1,17.08-3.78q12.45,0,20.53,5.3A24.94,24.94,0,0,1,268,341.59H255.92A15.39,15.39,0,0,0,249.2,333a22.88,22.88,0,0,0-12.39-3.13q-9.63,0-15.54,5.78t-5.92,16.39q0,10.71,5.92,16.56t15.54,5.84a23.18,23.18,0,0,0,12.33-3,15.5,15.5,0,0,0,6.78-8.66H268a26.11,26.11,0,0,1-10.85,14.55q-8.15,5.48-20.35,5.47A37.12,37.12,0,0,1,219.73,379a28.22,28.22,0,0,1-11.66-10.71,30.74,30.74,0,0,1-4.19-16.23A30.25,30.25,0,0,1,208.07,336Z" transform="translate(-51.34 -220.37)"/><path class="cls-1" d="M517.63,298.2a29,29,0,0,1-12.09-10.76,29.76,29.76,0,0,1-4.38-16.17,29,29,0,0,1,4.5-16.07,29.46,29.46,0,0,1,12.27-10.71,42.4,42.4,0,0,1,34.78,0A29.56,29.56,0,0,1,565,255.15a28.9,28.9,0,0,1,4.5,16.12,28.6,28.6,0,0,1-4.62,16.17,30.48,30.48,0,0,1-12.52,10.76A39.88,39.88,0,0,1,534.83,302,38.38,38.38,0,0,1,517.63,298.2Zm28.54-7.35a20.51,20.51,0,0,0,8.58-7.47,24.34,24.34,0,0,0,.06-24.23,19.85,19.85,0,0,0-8.39-7.41,27.18,27.18,0,0,0-22.51,0,19.2,19.2,0,0,0-8.2,7.41,22.62,22.62,0,0,0-3.08,12.12,23.19,23.19,0,0,0,3,12.22,18.91,18.91,0,0,0,8.08,7.41,25.28,25.28,0,0,0,11.1,2.43A26.31,26.31,0,0,0,546.17,290.85Z" transform="translate(-51.34 -220.37)"/><path class="cls-1" d="M538.47,324.28a29.12,29.12,0,0,1,13.38-2.81v10.17h-3q-18.87,0-18.87,18v32.23H518.8V322.55H530v9.63A20.18,20.18,0,0,1,538.47,324.28Z" transform="translate(-51.34 -220.37)"/><path class="cls-1" d="M630.81,249.84v35q0,4.32,2.09,6.11t7.28,1.79h8.26V301H638.33q-9.37,0-14.06-3.79t-4.68-12.44v-35h-8.76v-8.11h8.76V226.8h11.22v14.93h17.63v8.11Z" transform="translate(-51.34 -220.37)"/><path class="cls-1" d="M662.19,355.87h-54q.62,8.76,6.84,13.69a23.62,23.62,0,0,0,15.11,4.92,22.89,22.89,0,0,0,12.15-3,16.12,16.12,0,0,0,6.84-7.95h12.09a25.68,25.68,0,0,1-10.86,13.9q-8.13,5.35-20.22,5.36a37.9,37.9,0,0,1-17.2-3.79A28.8,28.8,0,0,1,601,368.26a30.1,30.1,0,0,1-4.31-16.18A30.47,30.47,0,0,1,600.9,336a27.74,27.74,0,0,1,11.78-10.65,39,39,0,0,1,17.45-3.73,37.78,37.78,0,0,1,17,3.67,27.61,27.61,0,0,1,11.41,10.12,27,27,0,0,1,4,14.55A50.1,50.1,0,0,1,662.19,355.87Zm-14.05-17.69a17.87,17.87,0,0,0-7.71-6.16,26.84,26.84,0,0,0-10.79-2.11,22.53,22.53,0,0,0-14.5,4.76,18.47,18.47,0,0,0-6.84,13.19H651A16.5,16.5,0,0,0,648.14,338.18Z" transform="translate(-51.34 -220.37)"/><path class="cls-1" d="M81.57,376.3q-14-5.52-22-15.34a36.13,36.13,0,0,1-8.23-22.67h25A27.66,27.66,0,0,0,86.71,356.9q9.14,7.56,26.62,7.56,16.73,0,26.37-7.34t9.64-18.83q0-9-5.66-14.67a36.5,36.5,0,0,0-14.14-8.57q-8.49-2.93-22.9-6.32a223.5,223.5,0,0,1-28.42-8.12A45.32,45.32,0,0,1,60,287.86q-7.59-8.69-7.59-23.35a36.88,36.88,0,0,1,7.46-22.79q7.45-9.93,21-15.35t31-5.41q25.2,0,41.28,11t18.14,29.34H145.49q-1.31-9-10.81-15.91t-25.2-6.88q-14.67,0-23.93,6.66t-9.26,18.61q0,8.58,5.53,14a36.3,36.3,0,0,0,13.63,8.24q8.11,2.82,22.77,6.43a234.24,234.24,0,0,1,28.55,8.45,47.35,47.35,0,0,1,18.52,12.86q7.72,8.7,7.72,23.59a37.74,37.74,0,0,1-6.95,21.66q-6.94,10.14-20.57,16.46t-32.16,6.32Q95.59,381.83,81.57,376.3Z" transform="translate(-51.34 -220.37)"/><path class="cls-1" d="M382.7,295.39a7.67,7.67,0,0,0,5,1.54,11.14,11.14,0,0,0,4.38-.83,11.74,11.74,0,0,0,3.71-2.56l-9.21-8.13q-5.76,1.93-5.76,6.12A4.76,4.76,0,0,0,382.7,295.39Z" transform="translate(-51.34 -220.37)"/><path class="cls-1" d="M467.17,258.31a78,78,0,0,0-32.35-28.1q-20.49-9.84-45.86-9.84t-45.85,9.84a77.67,77.67,0,0,0-32.36,28.25q-11.88,18.39-11.87,42.36,0,24.24,11.55,42.65a76.51,76.51,0,0,0,31.87,28.38q20.31,10,45.36,10,25.36,0,46.18-10a80.49,80.49,0,0,0,33-28.38q12.19-18.41,12.2-42.65T467.17,258.31Zm-88.72-8.72c2.87-1.49,5.57-2.89,8.31-4.21a6.77,6.77,0,0,1,2.5-.39,57.58,57.58,0,0,1,28.05,7,8.91,8.91,0,0,1,2.92,2.8c1.52,2.19,2.91,4.45,4.38,6.83l1,1.66a1.13,1.13,0,0,1-.22.14L423,264.62c-3.21,1.54-6.52,3.13-9.82,4.53a6.64,6.64,0,0,1-3.5.38c-4.74-.87-9.56-1.82-14.21-2.75-3.33-.66-6.77-1.35-10.17-2a2.45,2.45,0,0,1-2.1-1.55c-1.61-3.35-3.28-6.59-5.05-10l-1.41-2.73ZM382,280.37a6.16,6.16,0,0,1-.63-2.77,5.18,5.18,0,0,1,1-3.13,6.64,6.64,0,0,1,2.9-2.19,11.16,11.16,0,0,1,4.36-.79,10.07,10.07,0,0,1,4.23.83,6,6,0,0,1,2.69,2.31,5.63,5.63,0,0,1,.81,3.29h-4.09a3,3,0,0,0-1-2.54,4.12,4.12,0,0,0-2.79-.93,4.48,4.48,0,0,0-2.9.89,2.75,2.75,0,0,0-1.1,2.26,4,4,0,0,0,.74,2.29,16.42,16.42,0,0,0,2.49,2.72l9.36,8.25.81-1.11,3.05-4.49h4.41l-3.69,5.6c-.51.79-1.11,1.61-1.79,2.48l7,6.19h-5.35l-4.09-3.62a15.64,15.64,0,0,1-4.9,3.09,16.28,16.28,0,0,1-5.89,1,14.83,14.83,0,0,1-5.73-1,8.65,8.65,0,0,1-3.87-2.92,7.34,7.34,0,0,1-1.37-4.41,7.56,7.56,0,0,1,1.87-5.07,12.34,12.34,0,0,1,5.5-3.45A11.68,11.68,0,0,1,382,280.37Zm-40.71-4c3.24-5.72,5.95-10.47,8.91-15.29a10.84,10.84,0,0,1,7.26-5.4c4.53-.91,9.3-2,14.21-3.22,1.16-.3,1.2-.21,1.59.61.92,2,1.92,3.88,2.88,5.75,1.09,2.1,2.22,4.28,3.22,6.46a2.52,2.52,0,0,1-.17,1.73c-4.74,6.66-9.64,13.22-14.37,19.56-.68.91-1,1-1,1-5.12.95-10.16,1.8-15.49,2.69l-2.7.45c-.31-.8-.61-1.61-.92-2.41-1.38-3.6-2.68-7-3.89-10.5A3.28,3.28,0,0,1,341.3,276.34Zm.77,60.64c-4.3-6.34-7.43-13-8.64-18.21a13.23,13.23,0,0,1,4.39,4c2.63,4,5.52,8,8.3,11.74,1.25,1.7,2.53,3.45,3.78,5.19l.08.11a7,7,0,0,1,.94,1.55c.93,2.77,1.83,5.55,2.7,8.25C350.13,347.21,345.91,342.64,342.07,337Zm32.89-.25c-.24,1.1-.28,1.13-1.52,1.1-2.85-.06-5.75-.06-8.55-.07-3.2,0-6.51,0-9.74-.1a3.47,3.47,0,0,1-2.18-1c-4.54-6.09-8.85-12.26-12.46-17.47a2.51,2.51,0,0,1-.23-1.55c.72-3,1.55-6.49,2.47-10.21s1.93-7.7,3-11.67a2.36,2.36,0,0,1,1.17-.87c5.17-1,10.28-1.86,16.37-2.82a4.64,4.64,0,0,1,1.38.1l3.63,4.35c4.26,5.11,8.29,9.93,12.26,14.83a2.8,2.8,0,0,1,0,1.42c-.77,3.37-1.6,6.8-2.39,10.11C377.11,327.42,376,332.1,375,336.73Zm53.75-14.43c-1.46,3.24-2.91,6.55-4.31,9.74-1.48,3.36-3,6.84-4.54,10.23a3.79,3.79,0,0,1-1.44,1.56,70.47,70.47,0,0,1-22.4,7.66,2.31,2.31,0,0,1-1.49-.33c-2.59-1.93-5.19-3.94-7.71-5.88-2.31-1.78-4.69-3.62-7.06-5.4-1-.72-1-1.07-.8-2,1.83-7.34,3.68-15.09,5.64-23.67a1.9,1.9,0,0,1,1.6-1.75c7.38-2.19,15.16-4.6,23.79-7.36a3.49,3.49,0,0,1,1.07-.22,1.58,1.58,0,0,1,1.19.63c1.85,1.92,3.81,3.77,5.71,5.57l2.19,2.07,1.14,1.1,0,0,1.27,1.23c1.92,1.86,3.91,3.78,5.93,5.62C429,321.5,429.06,321.53,428.71,322.3Zm15.93-15a2.49,2.49,0,0,1-.13.82c-3.63,2.93-7.23,5.75-11,8.74l-1.78,1.39-3.26-3.11c-4.92-4.68-9.57-9.11-14.26-13.67a2.74,2.74,0,0,1-.18-1.15c0-3.53,0-7.12,0-10.6,0-5,0-10.07-.05-15.11,0-.94.16-1.18,1.1-1.61,3.64-1.65,7.29-3.42,10.82-5.14l1.29-.63c1.06-.51,1.42-.39,2,.25,2.21,2.37,4.48,4.74,6.67,7,2.66,2.79,5.42,5.67,8.07,8.55a3.6,3.6,0,0,1,.68,2.16C444.68,292.85,444.67,300.62,444.64,307.3Z" transform="translate(-51.34 -220.37)"/></svg>